%TF.GenerationSoftware,KiCad,Pcbnew,8.0.1*%
%TF.CreationDate,2024-08-08T16:42:16+02:00*%
%TF.ProjectId,LED torch,4c454420-746f-4726-9368-2e6b69636164,1*%
%TF.SameCoordinates,Original*%
%TF.FileFunction,Legend,Bot*%
%TF.FilePolarity,Positive*%
%FSLAX46Y46*%
G04 Gerber Fmt 4.6, Leading zero omitted, Abs format (unit mm)*
G04 Created by KiCad (PCBNEW 8.0.1) date 2024-08-08 16:42:16*
%MOMM*%
%LPD*%
G01*
G04 APERTURE LIST*
%ADD10C,0.100000*%
%ADD11C,0.010000*%
%ADD12C,0.120000*%
G04 APERTURE END LIST*
D10*
X160088972Y-79372419D02*
X159755639Y-80372419D01*
X159755639Y-80372419D02*
X159422306Y-79372419D01*
X158565163Y-80372419D02*
X159136591Y-80372419D01*
X158850877Y-80372419D02*
X158850877Y-79372419D01*
X158850877Y-79372419D02*
X158946115Y-79515276D01*
X158946115Y-79515276D02*
X159041353Y-79610514D01*
X159041353Y-79610514D02*
X159136591Y-79658133D01*
X158136591Y-80277180D02*
X158088972Y-80324800D01*
X158088972Y-80324800D02*
X158136591Y-80372419D01*
X158136591Y-80372419D02*
X158184210Y-80324800D01*
X158184210Y-80324800D02*
X158136591Y-80277180D01*
X158136591Y-80277180D02*
X158136591Y-80372419D01*
X157469925Y-79372419D02*
X157374687Y-79372419D01*
X157374687Y-79372419D02*
X157279449Y-79420038D01*
X157279449Y-79420038D02*
X157231830Y-79467657D01*
X157231830Y-79467657D02*
X157184211Y-79562895D01*
X157184211Y-79562895D02*
X157136592Y-79753371D01*
X157136592Y-79753371D02*
X157136592Y-79991466D01*
X157136592Y-79991466D02*
X157184211Y-80181942D01*
X157184211Y-80181942D02*
X157231830Y-80277180D01*
X157231830Y-80277180D02*
X157279449Y-80324800D01*
X157279449Y-80324800D02*
X157374687Y-80372419D01*
X157374687Y-80372419D02*
X157469925Y-80372419D01*
X157469925Y-80372419D02*
X157565163Y-80324800D01*
X157565163Y-80324800D02*
X157612782Y-80277180D01*
X157612782Y-80277180D02*
X157660401Y-80181942D01*
X157660401Y-80181942D02*
X157708020Y-79991466D01*
X157708020Y-79991466D02*
X157708020Y-79753371D01*
X157708020Y-79753371D02*
X157660401Y-79562895D01*
X157660401Y-79562895D02*
X157612782Y-79467657D01*
X157612782Y-79467657D02*
X157565163Y-79420038D01*
X157565163Y-79420038D02*
X157469925Y-79372419D01*
D11*
%TO.C,REF\u002A\u002A*%
X153566895Y-76790666D02*
X153601140Y-76811566D01*
X153636622Y-76840297D01*
X153636622Y-77702295D01*
X153601140Y-77731026D01*
X153559388Y-77754291D01*
X153511725Y-77755404D01*
X153469869Y-77728120D01*
X153464708Y-77721910D01*
X153457431Y-77709305D01*
X153451830Y-77691090D01*
X153447687Y-77663771D01*
X153444785Y-77623857D01*
X153442907Y-77567854D01*
X153441834Y-77492271D01*
X153441350Y-77393614D01*
X153441237Y-77268390D01*
X153441237Y-76840297D01*
X153476719Y-76811566D01*
X153508289Y-76791901D01*
X153538930Y-76782834D01*
X153566895Y-76790666D01*
G36*
X153566895Y-76790666D02*
G01*
X153601140Y-76811566D01*
X153636622Y-76840297D01*
X153636622Y-77702295D01*
X153601140Y-77731026D01*
X153559388Y-77754291D01*
X153511725Y-77755404D01*
X153469869Y-77728120D01*
X153464708Y-77721910D01*
X153457431Y-77709305D01*
X153451830Y-77691090D01*
X153447687Y-77663771D01*
X153444785Y-77623857D01*
X153442907Y-77567854D01*
X153441834Y-77492271D01*
X153441350Y-77393614D01*
X153441237Y-77268390D01*
X153441237Y-76840297D01*
X153476719Y-76811566D01*
X153508289Y-76791901D01*
X153538930Y-76782834D01*
X153566895Y-76790666D01*
G37*
X163060472Y-76788688D02*
X163105944Y-76819725D01*
X163142835Y-76856616D01*
X163142835Y-77273402D01*
X163142780Y-77385276D01*
X163142436Y-77484092D01*
X163141543Y-77559650D01*
X163139842Y-77615528D01*
X163137074Y-77655306D01*
X163132981Y-77682560D01*
X163127302Y-77700871D01*
X163119781Y-77713815D01*
X163110156Y-77724972D01*
X163068267Y-77753549D01*
X163021449Y-77755900D01*
X162977510Y-77729698D01*
X162970444Y-77721885D01*
X162963189Y-77709791D01*
X162957643Y-77692029D01*
X162953576Y-77665114D01*
X162950762Y-77625562D01*
X162948970Y-77569889D01*
X162947974Y-77494609D01*
X162947543Y-77396240D01*
X162947450Y-77271296D01*
X162947503Y-77170564D01*
X162947842Y-77066838D01*
X162948700Y-76986943D01*
X162950303Y-76927395D01*
X162952881Y-76884708D01*
X162956662Y-76855399D01*
X162961875Y-76835983D01*
X162968748Y-76822976D01*
X162977510Y-76812894D01*
X163016363Y-76787569D01*
X163060472Y-76788688D01*
G36*
X163060472Y-76788688D02*
G01*
X163105944Y-76819725D01*
X163142835Y-76856616D01*
X163142835Y-77273402D01*
X163142780Y-77385276D01*
X163142436Y-77484092D01*
X163141543Y-77559650D01*
X163139842Y-77615528D01*
X163137074Y-77655306D01*
X163132981Y-77682560D01*
X163127302Y-77700871D01*
X163119781Y-77713815D01*
X163110156Y-77724972D01*
X163068267Y-77753549D01*
X163021449Y-77755900D01*
X162977510Y-77729698D01*
X162970444Y-77721885D01*
X162963189Y-77709791D01*
X162957643Y-77692029D01*
X162953576Y-77665114D01*
X162950762Y-77625562D01*
X162948970Y-77569889D01*
X162947974Y-77494609D01*
X162947543Y-77396240D01*
X162947450Y-77271296D01*
X162947503Y-77170564D01*
X162947842Y-77066838D01*
X162948700Y-76986943D01*
X162950303Y-76927395D01*
X162952881Y-76884708D01*
X162956662Y-76855399D01*
X162961875Y-76835983D01*
X162968748Y-76822976D01*
X162977510Y-76812894D01*
X163016363Y-76787569D01*
X163060472Y-76788688D01*
G37*
X163146230Y-68247263D02*
X163285672Y-68281429D01*
X163417848Y-68342749D01*
X163538592Y-68431234D01*
X163643739Y-68546894D01*
X163729123Y-68689737D01*
X163752014Y-68740057D01*
X163770559Y-68791060D01*
X163780965Y-68842048D01*
X163785526Y-68905115D01*
X163786536Y-68992353D01*
X163785925Y-69064963D01*
X163782243Y-69131694D01*
X163773215Y-69183758D01*
X163756587Y-69233110D01*
X163730105Y-69291710D01*
X163722445Y-69307326D01*
X163631899Y-69450317D01*
X163518018Y-69567967D01*
X163384034Y-69657513D01*
X163233179Y-69716196D01*
X163155774Y-69732571D01*
X162998742Y-69740234D01*
X162846646Y-69715440D01*
X162703947Y-69660730D01*
X162575105Y-69578647D01*
X162464579Y-69471733D01*
X162376829Y-69342531D01*
X162316316Y-69193582D01*
X162294176Y-69071689D01*
X162292181Y-68937175D01*
X162310188Y-68806332D01*
X162347339Y-68692996D01*
X162390265Y-68611967D01*
X162485826Y-68483411D01*
X162599114Y-68381951D01*
X162725964Y-68307596D01*
X162862211Y-68260357D01*
X163003688Y-68240242D01*
X163146230Y-68247263D01*
G36*
X163146230Y-68247263D02*
G01*
X163285672Y-68281429D01*
X163417848Y-68342749D01*
X163538592Y-68431234D01*
X163643739Y-68546894D01*
X163729123Y-68689737D01*
X163752014Y-68740057D01*
X163770559Y-68791060D01*
X163780965Y-68842048D01*
X163785526Y-68905115D01*
X163786536Y-68992353D01*
X163785925Y-69064963D01*
X163782243Y-69131694D01*
X163773215Y-69183758D01*
X163756587Y-69233110D01*
X163730105Y-69291710D01*
X163722445Y-69307326D01*
X163631899Y-69450317D01*
X163518018Y-69567967D01*
X163384034Y-69657513D01*
X163233179Y-69716196D01*
X163155774Y-69732571D01*
X162998742Y-69740234D01*
X162846646Y-69715440D01*
X162703947Y-69660730D01*
X162575105Y-69578647D01*
X162464579Y-69471733D01*
X162376829Y-69342531D01*
X162316316Y-69193582D01*
X162294176Y-69071689D01*
X162292181Y-68937175D01*
X162310188Y-68806332D01*
X162347339Y-68692996D01*
X162390265Y-68611967D01*
X162485826Y-68483411D01*
X162599114Y-68381951D01*
X162725964Y-68307596D01*
X162862211Y-68260357D01*
X163003688Y-68240242D01*
X163146230Y-68247263D01*
G37*
X152635424Y-76782836D02*
X152760736Y-76782956D01*
X152859941Y-76783408D01*
X152936371Y-76784396D01*
X152993352Y-76786121D01*
X153034216Y-76788785D01*
X153062290Y-76792593D01*
X153080905Y-76797745D01*
X153093389Y-76804444D01*
X153103072Y-76812894D01*
X153128109Y-76856453D01*
X153130035Y-76906481D01*
X153108257Y-76950734D01*
X153106446Y-76952669D01*
X153091531Y-76963800D01*
X153068761Y-76971195D01*
X153032589Y-76975581D01*
X152977466Y-76977680D01*
X152897843Y-76978219D01*
X152712302Y-76978219D01*
X152712302Y-77329387D01*
X152712202Y-77430342D01*
X152711659Y-77519098D01*
X152710351Y-77585379D01*
X152707960Y-77633197D01*
X152704164Y-77666570D01*
X152698645Y-77689510D01*
X152691081Y-77706034D01*
X152681152Y-77720157D01*
X152678103Y-77723893D01*
X152636593Y-77754038D01*
X152590822Y-77756120D01*
X152546977Y-77729698D01*
X152537686Y-77718947D01*
X152530401Y-77704836D01*
X152525049Y-77683743D01*
X152521333Y-77651822D01*
X152518957Y-77605226D01*
X152517627Y-77540109D01*
X152517046Y-77452625D01*
X152516918Y-77338929D01*
X152516918Y-76978219D01*
X152322624Y-76978219D01*
X152307846Y-76978218D01*
X152232601Y-76977918D01*
X152180885Y-76976401D01*
X152147078Y-76972674D01*
X152125561Y-76965742D01*
X152110714Y-76954610D01*
X152096917Y-76938284D01*
X152075819Y-76897427D01*
X152079949Y-76852453D01*
X152114090Y-76809136D01*
X152120668Y-76804187D01*
X152134262Y-76797749D01*
X152154799Y-76792738D01*
X152185582Y-76788981D01*
X152229913Y-76786300D01*
X152291094Y-76784520D01*
X152372428Y-76783467D01*
X152477216Y-76782963D01*
X152608760Y-76782834D01*
X152635424Y-76782836D01*
G36*
X152635424Y-76782836D02*
G01*
X152760736Y-76782956D01*
X152859941Y-76783408D01*
X152936371Y-76784396D01*
X152993352Y-76786121D01*
X153034216Y-76788785D01*
X153062290Y-76792593D01*
X153080905Y-76797745D01*
X153093389Y-76804444D01*
X153103072Y-76812894D01*
X153128109Y-76856453D01*
X153130035Y-76906481D01*
X153108257Y-76950734D01*
X153106446Y-76952669D01*
X153091531Y-76963800D01*
X153068761Y-76971195D01*
X153032589Y-76975581D01*
X152977466Y-76977680D01*
X152897843Y-76978219D01*
X152712302Y-76978219D01*
X152712302Y-77329387D01*
X152712202Y-77430342D01*
X152711659Y-77519098D01*
X152710351Y-77585379D01*
X152707960Y-77633197D01*
X152704164Y-77666570D01*
X152698645Y-77689510D01*
X152691081Y-77706034D01*
X152681152Y-77720157D01*
X152678103Y-77723893D01*
X152636593Y-77754038D01*
X152590822Y-77756120D01*
X152546977Y-77729698D01*
X152537686Y-77718947D01*
X152530401Y-77704836D01*
X152525049Y-77683743D01*
X152521333Y-77651822D01*
X152518957Y-77605226D01*
X152517627Y-77540109D01*
X152517046Y-77452625D01*
X152516918Y-77338929D01*
X152516918Y-76978219D01*
X152322624Y-76978219D01*
X152307846Y-76978218D01*
X152232601Y-76977918D01*
X152180885Y-76976401D01*
X152147078Y-76972674D01*
X152125561Y-76965742D01*
X152110714Y-76954610D01*
X152096917Y-76938284D01*
X152075819Y-76897427D01*
X152079949Y-76852453D01*
X152114090Y-76809136D01*
X152120668Y-76804187D01*
X152134262Y-76797749D01*
X152154799Y-76792738D01*
X152185582Y-76788981D01*
X152229913Y-76786300D01*
X152291094Y-76784520D01*
X152372428Y-76783467D01*
X152477216Y-76782963D01*
X152608760Y-76782834D01*
X152635424Y-76782836D01*
G37*
X151735379Y-76812894D02*
X151742878Y-76821135D01*
X151749655Y-76832060D01*
X151755095Y-76847739D01*
X151759327Y-76870983D01*
X151762477Y-76904605D01*
X151764675Y-76951416D01*
X151766048Y-77014227D01*
X151766725Y-77095851D01*
X151766833Y-77199098D01*
X151766501Y-77326781D01*
X151765857Y-77481710D01*
X151765765Y-77500582D01*
X151764985Y-77582810D01*
X151763224Y-77640968D01*
X151759835Y-77680084D01*
X151754170Y-77705185D01*
X151745581Y-77721300D01*
X151733420Y-77733456D01*
X151688876Y-77756644D01*
X151642347Y-77752781D01*
X151601204Y-77720157D01*
X151589209Y-77702579D01*
X151579289Y-77677901D01*
X151573474Y-77643248D01*
X151570738Y-77591929D01*
X151570054Y-77517257D01*
X151570054Y-77353959D01*
X150908752Y-77353959D01*
X150908752Y-77533462D01*
X150908655Y-77581112D01*
X150907640Y-77642794D01*
X150904742Y-77683446D01*
X150899021Y-77708782D01*
X150889537Y-77724516D01*
X150875349Y-77736361D01*
X150832411Y-77756424D01*
X150785432Y-77752873D01*
X150744518Y-77720157D01*
X150738319Y-77711829D01*
X150730417Y-77697818D01*
X150724384Y-77679272D01*
X150719970Y-77652547D01*
X150716922Y-77613994D01*
X150714990Y-77559968D01*
X150713921Y-77486822D01*
X150713464Y-77390910D01*
X150713368Y-77268586D01*
X150713368Y-76856616D01*
X150750258Y-76819725D01*
X150792034Y-76790112D01*
X150836274Y-76786531D01*
X150878693Y-76812894D01*
X150889724Y-76825902D01*
X150899592Y-76847060D01*
X150905367Y-76878969D01*
X150908077Y-76928060D01*
X150908752Y-77000763D01*
X150908752Y-77158574D01*
X151570054Y-77158574D01*
X151570054Y-77004784D01*
X151570637Y-76935957D01*
X151573252Y-76889992D01*
X151579264Y-76859935D01*
X151590040Y-76838831D01*
X151606945Y-76819725D01*
X151648721Y-76790112D01*
X151692960Y-76786531D01*
X151735379Y-76812894D01*
G36*
X151735379Y-76812894D02*
G01*
X151742878Y-76821135D01*
X151749655Y-76832060D01*
X151755095Y-76847739D01*
X151759327Y-76870983D01*
X151762477Y-76904605D01*
X151764675Y-76951416D01*
X151766048Y-77014227D01*
X151766725Y-77095851D01*
X151766833Y-77199098D01*
X151766501Y-77326781D01*
X151765857Y-77481710D01*
X151765765Y-77500582D01*
X151764985Y-77582810D01*
X151763224Y-77640968D01*
X151759835Y-77680084D01*
X151754170Y-77705185D01*
X151745581Y-77721300D01*
X151733420Y-77733456D01*
X151688876Y-77756644D01*
X151642347Y-77752781D01*
X151601204Y-77720157D01*
X151589209Y-77702579D01*
X151579289Y-77677901D01*
X151573474Y-77643248D01*
X151570738Y-77591929D01*
X151570054Y-77517257D01*
X151570054Y-77353959D01*
X150908752Y-77353959D01*
X150908752Y-77533462D01*
X150908655Y-77581112D01*
X150907640Y-77642794D01*
X150904742Y-77683446D01*
X150899021Y-77708782D01*
X150889537Y-77724516D01*
X150875349Y-77736361D01*
X150832411Y-77756424D01*
X150785432Y-77752873D01*
X150744518Y-77720157D01*
X150738319Y-77711829D01*
X150730417Y-77697818D01*
X150724384Y-77679272D01*
X150719970Y-77652547D01*
X150716922Y-77613994D01*
X150714990Y-77559968D01*
X150713921Y-77486822D01*
X150713464Y-77390910D01*
X150713368Y-77268586D01*
X150713368Y-76856616D01*
X150750258Y-76819725D01*
X150792034Y-76790112D01*
X150836274Y-76786531D01*
X150878693Y-76812894D01*
X150889724Y-76825902D01*
X150899592Y-76847060D01*
X150905367Y-76878969D01*
X150908077Y-76928060D01*
X150908752Y-77000763D01*
X150908752Y-77158574D01*
X151570054Y-77158574D01*
X151570054Y-77004784D01*
X151570637Y-76935957D01*
X151573252Y-76889992D01*
X151579264Y-76859935D01*
X151590040Y-76838831D01*
X151606945Y-76819725D01*
X151648721Y-76790112D01*
X151692960Y-76786531D01*
X151735379Y-76812894D01*
G37*
X157999964Y-77596735D02*
X157997342Y-77640374D01*
X157993443Y-77670890D01*
X157988015Y-77691928D01*
X157980807Y-77707135D01*
X157971567Y-77720157D01*
X157940417Y-77759758D01*
X157719821Y-77758967D01*
X157673495Y-77758570D01*
X157542378Y-77754003D01*
X157434589Y-77743775D01*
X157345262Y-77727056D01*
X157269530Y-77703019D01*
X157202527Y-77670833D01*
X157198055Y-77668281D01*
X157121087Y-77619396D01*
X157064698Y-77570181D01*
X157021008Y-77512286D01*
X156982132Y-77437361D01*
X156976432Y-77424559D01*
X156946373Y-77340436D01*
X156938738Y-77279786D01*
X157137437Y-77279786D01*
X157144910Y-77312708D01*
X157152533Y-77333848D01*
X157196375Y-77413607D01*
X157259399Y-77474521D01*
X157344294Y-77518636D01*
X157453744Y-77547999D01*
X157457463Y-77548667D01*
X157519086Y-77556605D01*
X157594170Y-77562234D01*
X157667311Y-77564373D01*
X157792302Y-77564373D01*
X157792302Y-76978219D01*
X157675823Y-76978816D01*
X157586729Y-76982112D01*
X157463714Y-76997092D01*
X157358117Y-77023106D01*
X157275606Y-77059018D01*
X157234414Y-77086615D01*
X157196976Y-77126244D01*
X157165903Y-77182731D01*
X157156414Y-77203988D01*
X157140672Y-77247260D01*
X157137437Y-77279786D01*
X156938738Y-77279786D01*
X156937092Y-77266708D01*
X156948544Y-77193448D01*
X156980685Y-77110728D01*
X156981744Y-77108474D01*
X157035600Y-77016048D01*
X157103079Y-76940695D01*
X157186590Y-76881359D01*
X157288540Y-76836987D01*
X157411338Y-76806525D01*
X157557392Y-76788917D01*
X157729110Y-76783111D01*
X157733865Y-76783105D01*
X157813774Y-76783291D01*
X157869599Y-76784671D01*
X157907028Y-76788125D01*
X157931750Y-76794532D01*
X157949453Y-76804772D01*
X157965826Y-76819725D01*
X158002717Y-76856616D01*
X158002717Y-77268586D01*
X158002683Y-77350605D01*
X158002383Y-77455496D01*
X158001561Y-77536324D01*
X158000819Y-77564373D01*
X157999964Y-77596735D01*
G36*
X157999964Y-77596735D02*
G01*
X157997342Y-77640374D01*
X157993443Y-77670890D01*
X157988015Y-77691928D01*
X157980807Y-77707135D01*
X157971567Y-77720157D01*
X157940417Y-77759758D01*
X157719821Y-77758967D01*
X157673495Y-77758570D01*
X157542378Y-77754003D01*
X157434589Y-77743775D01*
X157345262Y-77727056D01*
X157269530Y-77703019D01*
X157202527Y-77670833D01*
X157198055Y-77668281D01*
X157121087Y-77619396D01*
X157064698Y-77570181D01*
X157021008Y-77512286D01*
X156982132Y-77437361D01*
X156976432Y-77424559D01*
X156946373Y-77340436D01*
X156938738Y-77279786D01*
X157137437Y-77279786D01*
X157144910Y-77312708D01*
X157152533Y-77333848D01*
X157196375Y-77413607D01*
X157259399Y-77474521D01*
X157344294Y-77518636D01*
X157453744Y-77547999D01*
X157457463Y-77548667D01*
X157519086Y-77556605D01*
X157594170Y-77562234D01*
X157667311Y-77564373D01*
X157792302Y-77564373D01*
X157792302Y-76978219D01*
X157675823Y-76978816D01*
X157586729Y-76982112D01*
X157463714Y-76997092D01*
X157358117Y-77023106D01*
X157275606Y-77059018D01*
X157234414Y-77086615D01*
X157196976Y-77126244D01*
X157165903Y-77182731D01*
X157156414Y-77203988D01*
X157140672Y-77247260D01*
X157137437Y-77279786D01*
X156938738Y-77279786D01*
X156937092Y-77266708D01*
X156948544Y-77193448D01*
X156980685Y-77110728D01*
X156981744Y-77108474D01*
X157035600Y-77016048D01*
X157103079Y-76940695D01*
X157186590Y-76881359D01*
X157288540Y-76836987D01*
X157411338Y-76806525D01*
X157557392Y-76788917D01*
X157729110Y-76783111D01*
X157733865Y-76783105D01*
X157813774Y-76783291D01*
X157869599Y-76784671D01*
X157907028Y-76788125D01*
X157931750Y-76794532D01*
X157949453Y-76804772D01*
X157965826Y-76819725D01*
X158002717Y-76856616D01*
X158002717Y-77268586D01*
X158002683Y-77350605D01*
X158002383Y-77455496D01*
X158001561Y-77536324D01*
X158000819Y-77564373D01*
X157999964Y-77596735D01*
G37*
X167441555Y-77029616D02*
X167441627Y-77136943D01*
X167441296Y-77271296D01*
X167441244Y-77372029D01*
X167440904Y-77475754D01*
X167440047Y-77555649D01*
X167438444Y-77615197D01*
X167435866Y-77657884D01*
X167432085Y-77687193D01*
X167426872Y-77706609D01*
X167419999Y-77719616D01*
X167411237Y-77729698D01*
X167401961Y-77737998D01*
X167384656Y-77747717D01*
X167359163Y-77754046D01*
X167320016Y-77757690D01*
X167261748Y-77759359D01*
X167178893Y-77759758D01*
X167113727Y-77759258D01*
X166971459Y-77753362D01*
X166852664Y-77739932D01*
X166753081Y-77717847D01*
X166668445Y-77685987D01*
X166594493Y-77643232D01*
X166526960Y-77588462D01*
X166518988Y-77580670D01*
X166469904Y-77516087D01*
X166428500Y-77435129D01*
X166399898Y-77349598D01*
X166392867Y-77298017D01*
X166588867Y-77298017D01*
X166613207Y-77365830D01*
X166652709Y-77426962D01*
X166714879Y-77483424D01*
X166796610Y-77523102D01*
X166901983Y-77548579D01*
X166903967Y-77548896D01*
X166969165Y-77556607D01*
X167047308Y-77562120D01*
X167121918Y-77564259D01*
X167245912Y-77564373D01*
X167245912Y-76978219D01*
X167144462Y-76978200D01*
X167140431Y-76978212D01*
X167072372Y-76980828D01*
X166992354Y-76987118D01*
X166916854Y-76995810D01*
X166850342Y-77008187D01*
X166750820Y-77043159D01*
X166674255Y-77095480D01*
X166619002Y-77166089D01*
X166590754Y-77234343D01*
X166588867Y-77298017D01*
X166392867Y-77298017D01*
X166389225Y-77271296D01*
X166390928Y-77243049D01*
X166407320Y-77166608D01*
X166437314Y-77086845D01*
X166476230Y-77014886D01*
X166519388Y-76961857D01*
X166545405Y-76939193D01*
X166618246Y-76887021D01*
X166698531Y-76846907D01*
X166790656Y-76817670D01*
X166899018Y-76798123D01*
X167028012Y-76787084D01*
X167182036Y-76783368D01*
X167234601Y-76782833D01*
X167295459Y-76782283D01*
X167343122Y-76784685D01*
X167379190Y-76793049D01*
X167405261Y-76810384D01*
X167422934Y-76839699D01*
X167433808Y-76884003D01*
X167439483Y-76946305D01*
X167440277Y-76978219D01*
X167441555Y-77029616D01*
G36*
X167441555Y-77029616D02*
G01*
X167441627Y-77136943D01*
X167441296Y-77271296D01*
X167441244Y-77372029D01*
X167440904Y-77475754D01*
X167440047Y-77555649D01*
X167438444Y-77615197D01*
X167435866Y-77657884D01*
X167432085Y-77687193D01*
X167426872Y-77706609D01*
X167419999Y-77719616D01*
X167411237Y-77729698D01*
X167401961Y-77737998D01*
X167384656Y-77747717D01*
X167359163Y-77754046D01*
X167320016Y-77757690D01*
X167261748Y-77759359D01*
X167178893Y-77759758D01*
X167113727Y-77759258D01*
X166971459Y-77753362D01*
X166852664Y-77739932D01*
X166753081Y-77717847D01*
X166668445Y-77685987D01*
X166594493Y-77643232D01*
X166526960Y-77588462D01*
X166518988Y-77580670D01*
X166469904Y-77516087D01*
X166428500Y-77435129D01*
X166399898Y-77349598D01*
X166392867Y-77298017D01*
X166588867Y-77298017D01*
X166613207Y-77365830D01*
X166652709Y-77426962D01*
X166714879Y-77483424D01*
X166796610Y-77523102D01*
X166901983Y-77548579D01*
X166903967Y-77548896D01*
X166969165Y-77556607D01*
X167047308Y-77562120D01*
X167121918Y-77564259D01*
X167245912Y-77564373D01*
X167245912Y-76978219D01*
X167144462Y-76978200D01*
X167140431Y-76978212D01*
X167072372Y-76980828D01*
X166992354Y-76987118D01*
X166916854Y-76995810D01*
X166850342Y-77008187D01*
X166750820Y-77043159D01*
X166674255Y-77095480D01*
X166619002Y-77166089D01*
X166590754Y-77234343D01*
X166588867Y-77298017D01*
X166392867Y-77298017D01*
X166389225Y-77271296D01*
X166390928Y-77243049D01*
X166407320Y-77166608D01*
X166437314Y-77086845D01*
X166476230Y-77014886D01*
X166519388Y-76961857D01*
X166545405Y-76939193D01*
X166618246Y-76887021D01*
X166698531Y-76846907D01*
X166790656Y-76817670D01*
X166899018Y-76798123D01*
X167028012Y-76787084D01*
X167182036Y-76783368D01*
X167234601Y-76782833D01*
X167295459Y-76782283D01*
X167343122Y-76784685D01*
X167379190Y-76793049D01*
X167405261Y-76810384D01*
X167422934Y-76839699D01*
X167433808Y-76884003D01*
X167439483Y-76946305D01*
X167440277Y-76978219D01*
X167441555Y-77029616D01*
G37*
X160858077Y-76781270D02*
X160873265Y-76789441D01*
X160887309Y-76803636D01*
X160902336Y-76822435D01*
X160908264Y-76830372D01*
X160916250Y-76844344D01*
X160922347Y-76862751D01*
X160926809Y-76889251D01*
X160929890Y-76927507D01*
X160931844Y-76981179D01*
X160932926Y-77053927D01*
X160933388Y-77149412D01*
X160933486Y-77271296D01*
X160933455Y-77349221D01*
X160933165Y-77454515D01*
X160932354Y-77535651D01*
X160930768Y-77596290D01*
X160928155Y-77640093D01*
X160924259Y-77670720D01*
X160918826Y-77691833D01*
X160911603Y-77707091D01*
X160902336Y-77720157D01*
X160861824Y-77752633D01*
X160815303Y-77756466D01*
X160766068Y-77731050D01*
X160760498Y-77726424D01*
X160749613Y-77715070D01*
X160741544Y-77699692D01*
X160735709Y-77675950D01*
X160731526Y-77639508D01*
X160728414Y-77586028D01*
X160725790Y-77511171D01*
X160723072Y-77410601D01*
X160715557Y-77118859D01*
X160362362Y-77439238D01*
X160264062Y-77528142D01*
X160177284Y-77605515D01*
X160107795Y-77665370D01*
X160053110Y-77709201D01*
X160010747Y-77738501D01*
X159978225Y-77754764D01*
X159953059Y-77759484D01*
X159932768Y-77754155D01*
X159914869Y-77740270D01*
X159896880Y-77719323D01*
X159888565Y-77708029D01*
X159881067Y-77693947D01*
X159875461Y-77675097D01*
X159871531Y-77647867D01*
X159869061Y-77608645D01*
X159867837Y-77553818D01*
X159867644Y-77479772D01*
X159868266Y-77382895D01*
X159869487Y-77259574D01*
X159873900Y-76840259D01*
X159909382Y-76811547D01*
X159944084Y-76789990D01*
X159987830Y-76786301D01*
X160033803Y-76811534D01*
X160039544Y-76816306D01*
X160050371Y-76827662D01*
X160058398Y-76843095D01*
X160064203Y-76866934D01*
X160068367Y-76903508D01*
X160071469Y-76957146D01*
X160074086Y-77032178D01*
X160076799Y-77132932D01*
X160084314Y-77425631D01*
X160324788Y-77207562D01*
X160440267Y-77102872D01*
X160541146Y-77011816D01*
X160623872Y-76938126D01*
X160690571Y-76880384D01*
X160743369Y-76837173D01*
X160784392Y-76807073D01*
X160815767Y-76788668D01*
X160839620Y-76780540D01*
X160858077Y-76781270D01*
G36*
X160858077Y-76781270D02*
G01*
X160873265Y-76789441D01*
X160887309Y-76803636D01*
X160902336Y-76822435D01*
X160908264Y-76830372D01*
X160916250Y-76844344D01*
X160922347Y-76862751D01*
X160926809Y-76889251D01*
X160929890Y-76927507D01*
X160931844Y-76981179D01*
X160932926Y-77053927D01*
X160933388Y-77149412D01*
X160933486Y-77271296D01*
X160933455Y-77349221D01*
X160933165Y-77454515D01*
X160932354Y-77535651D01*
X160930768Y-77596290D01*
X160928155Y-77640093D01*
X160924259Y-77670720D01*
X160918826Y-77691833D01*
X160911603Y-77707091D01*
X160902336Y-77720157D01*
X160861824Y-77752633D01*
X160815303Y-77756466D01*
X160766068Y-77731050D01*
X160760498Y-77726424D01*
X160749613Y-77715070D01*
X160741544Y-77699692D01*
X160735709Y-77675950D01*
X160731526Y-77639508D01*
X160728414Y-77586028D01*
X160725790Y-77511171D01*
X160723072Y-77410601D01*
X160715557Y-77118859D01*
X160362362Y-77439238D01*
X160264062Y-77528142D01*
X160177284Y-77605515D01*
X160107795Y-77665370D01*
X160053110Y-77709201D01*
X160010747Y-77738501D01*
X159978225Y-77754764D01*
X159953059Y-77759484D01*
X159932768Y-77754155D01*
X159914869Y-77740270D01*
X159896880Y-77719323D01*
X159888565Y-77708029D01*
X159881067Y-77693947D01*
X159875461Y-77675097D01*
X159871531Y-77647867D01*
X159869061Y-77608645D01*
X159867837Y-77553818D01*
X159867644Y-77479772D01*
X159868266Y-77382895D01*
X159869487Y-77259574D01*
X159873900Y-76840259D01*
X159909382Y-76811547D01*
X159944084Y-76789990D01*
X159987830Y-76786301D01*
X160033803Y-76811534D01*
X160039544Y-76816306D01*
X160050371Y-76827662D01*
X160058398Y-76843095D01*
X160064203Y-76866934D01*
X160068367Y-76903508D01*
X160071469Y-76957146D01*
X160074086Y-77032178D01*
X160076799Y-77132932D01*
X160084314Y-77425631D01*
X160324788Y-77207562D01*
X160440267Y-77102872D01*
X160541146Y-77011816D01*
X160623872Y-76938126D01*
X160690571Y-76880384D01*
X160743369Y-76837173D01*
X160784392Y-76807073D01*
X160815767Y-76788668D01*
X160839620Y-76780540D01*
X160858077Y-76781270D01*
G37*
X161919514Y-76789641D02*
X162060647Y-76811362D01*
X162185545Y-76848709D01*
X162290450Y-76900507D01*
X162371602Y-76965586D01*
X162406311Y-77009337D01*
X162445596Y-77074838D01*
X162479242Y-77146543D01*
X162502740Y-77214665D01*
X162511581Y-77269417D01*
X162509504Y-77295665D01*
X162492274Y-77364007D01*
X162461436Y-77439264D01*
X162421639Y-77511046D01*
X162377533Y-77568966D01*
X162363958Y-77582743D01*
X162274643Y-77651674D01*
X162167967Y-77704786D01*
X162053190Y-77737273D01*
X161980013Y-77748073D01*
X161855593Y-77756866D01*
X161736063Y-77754087D01*
X161626239Y-77740447D01*
X161530937Y-77716656D01*
X161454972Y-77683422D01*
X161403160Y-77641457D01*
X161401329Y-77638827D01*
X161391893Y-77605242D01*
X161386249Y-77542334D01*
X161384373Y-77449852D01*
X161385518Y-77366998D01*
X161391802Y-77303915D01*
X161407365Y-77261174D01*
X161436348Y-77235143D01*
X161482891Y-77222188D01*
X161551134Y-77218677D01*
X161645217Y-77220978D01*
X161709948Y-77224988D01*
X161776777Y-77235895D01*
X161820038Y-77254605D01*
X161843282Y-77282877D01*
X161850060Y-77322472D01*
X161849919Y-77328518D01*
X161838333Y-77374841D01*
X161806368Y-77406018D01*
X161751429Y-77423592D01*
X161670924Y-77429107D01*
X161579758Y-77429107D01*
X161579758Y-77480167D01*
X161579825Y-77492330D01*
X161582781Y-77515297D01*
X161595119Y-77529002D01*
X161623585Y-77538238D01*
X161674924Y-77547800D01*
X161682212Y-77549044D01*
X161811288Y-77562229D01*
X161931099Y-77558342D01*
X162038817Y-77538731D01*
X162131611Y-77504741D01*
X162206653Y-77457717D01*
X162261113Y-77399005D01*
X162292163Y-77329951D01*
X162296972Y-77251902D01*
X162289625Y-77213432D01*
X162254100Y-77139023D01*
X162192606Y-77078234D01*
X162106092Y-77031855D01*
X161995507Y-77000676D01*
X161962656Y-76994753D01*
X161843727Y-76980775D01*
X161737475Y-76982411D01*
X161633506Y-76999633D01*
X161586717Y-77008672D01*
X161526223Y-77010027D01*
X161484532Y-76993343D01*
X161457700Y-76957680D01*
X161449201Y-76920073D01*
X161461831Y-76878502D01*
X161474251Y-76860628D01*
X161519829Y-76829299D01*
X161589888Y-76805506D01*
X161681109Y-76790200D01*
X161790172Y-76784333D01*
X161919514Y-76789641D01*
G36*
X161919514Y-76789641D02*
G01*
X162060647Y-76811362D01*
X162185545Y-76848709D01*
X162290450Y-76900507D01*
X162371602Y-76965586D01*
X162406311Y-77009337D01*
X162445596Y-77074838D01*
X162479242Y-77146543D01*
X162502740Y-77214665D01*
X162511581Y-77269417D01*
X162509504Y-77295665D01*
X162492274Y-77364007D01*
X162461436Y-77439264D01*
X162421639Y-77511046D01*
X162377533Y-77568966D01*
X162363958Y-77582743D01*
X162274643Y-77651674D01*
X162167967Y-77704786D01*
X162053190Y-77737273D01*
X161980013Y-77748073D01*
X161855593Y-77756866D01*
X161736063Y-77754087D01*
X161626239Y-77740447D01*
X161530937Y-77716656D01*
X161454972Y-77683422D01*
X161403160Y-77641457D01*
X161401329Y-77638827D01*
X161391893Y-77605242D01*
X161386249Y-77542334D01*
X161384373Y-77449852D01*
X161385518Y-77366998D01*
X161391802Y-77303915D01*
X161407365Y-77261174D01*
X161436348Y-77235143D01*
X161482891Y-77222188D01*
X161551134Y-77218677D01*
X161645217Y-77220978D01*
X161709948Y-77224988D01*
X161776777Y-77235895D01*
X161820038Y-77254605D01*
X161843282Y-77282877D01*
X161850060Y-77322472D01*
X161849919Y-77328518D01*
X161838333Y-77374841D01*
X161806368Y-77406018D01*
X161751429Y-77423592D01*
X161670924Y-77429107D01*
X161579758Y-77429107D01*
X161579758Y-77480167D01*
X161579825Y-77492330D01*
X161582781Y-77515297D01*
X161595119Y-77529002D01*
X161623585Y-77538238D01*
X161674924Y-77547800D01*
X161682212Y-77549044D01*
X161811288Y-77562229D01*
X161931099Y-77558342D01*
X162038817Y-77538731D01*
X162131611Y-77504741D01*
X162206653Y-77457717D01*
X162261113Y-77399005D01*
X162292163Y-77329951D01*
X162296972Y-77251902D01*
X162289625Y-77213432D01*
X162254100Y-77139023D01*
X162192606Y-77078234D01*
X162106092Y-77031855D01*
X161995507Y-77000676D01*
X161962656Y-76994753D01*
X161843727Y-76980775D01*
X161737475Y-76982411D01*
X161633506Y-76999633D01*
X161586717Y-77008672D01*
X161526223Y-77010027D01*
X161484532Y-76993343D01*
X161457700Y-76957680D01*
X161449201Y-76920073D01*
X161461831Y-76878502D01*
X161474251Y-76860628D01*
X161519829Y-76829299D01*
X161589888Y-76805506D01*
X161681109Y-76790200D01*
X161790172Y-76784333D01*
X161919514Y-76789641D01*
G37*
X159324229Y-76822435D02*
X159330818Y-76831334D01*
X159338599Y-76845408D01*
X159344538Y-76864163D01*
X159348884Y-76891223D01*
X159351883Y-76930214D01*
X159353785Y-76984763D01*
X159354836Y-77058493D01*
X159355285Y-77155032D01*
X159355379Y-77278004D01*
X159355341Y-77365763D01*
X159355032Y-77470031D01*
X159354206Y-77550269D01*
X159352618Y-77610045D01*
X159350025Y-77652926D01*
X159346184Y-77682480D01*
X159340851Y-77702276D01*
X159333783Y-77715881D01*
X159324735Y-77726864D01*
X159318724Y-77733065D01*
X159307767Y-77741701D01*
X159292643Y-77748240D01*
X159269653Y-77752974D01*
X159235097Y-77756193D01*
X159185279Y-77758190D01*
X159116497Y-77759255D01*
X159025054Y-77759680D01*
X158907250Y-77759758D01*
X158881056Y-77759749D01*
X158765195Y-77759394D01*
X158675125Y-77758375D01*
X158607286Y-77756492D01*
X158558117Y-77753547D01*
X158524055Y-77749343D01*
X158501539Y-77743680D01*
X158487008Y-77736361D01*
X158473038Y-77723066D01*
X158455383Y-77681638D01*
X158456957Y-77633858D01*
X158478478Y-77591858D01*
X158481393Y-77588828D01*
X158492959Y-77580483D01*
X158510722Y-77574271D01*
X158538658Y-77569882D01*
X158580744Y-77567008D01*
X158640958Y-77565338D01*
X158723275Y-77564563D01*
X158831673Y-77564373D01*
X159159995Y-77564373D01*
X159159995Y-77353959D01*
X158943731Y-77353959D01*
X158896243Y-77353852D01*
X158821993Y-77352790D01*
X158769886Y-77350121D01*
X158734667Y-77345273D01*
X158711078Y-77337673D01*
X158693864Y-77326749D01*
X158689014Y-77322510D01*
X158664507Y-77281271D01*
X158663663Y-77232895D01*
X158687013Y-77188135D01*
X158687096Y-77188044D01*
X158699971Y-77176559D01*
X158717670Y-77168497D01*
X158745239Y-77163263D01*
X158787724Y-77160261D01*
X158850172Y-77158897D01*
X158937630Y-77158574D01*
X159161495Y-77158574D01*
X159156987Y-77072154D01*
X159152480Y-76985734D01*
X158830188Y-76981669D01*
X158796882Y-76981233D01*
X158688217Y-76979263D01*
X158605247Y-76976089D01*
X158544519Y-76970769D01*
X158502578Y-76962364D01*
X158475971Y-76949930D01*
X158461242Y-76932527D01*
X158454938Y-76909214D01*
X158453604Y-76879050D01*
X158453612Y-76875900D01*
X158455148Y-76849232D01*
X158461536Y-76828206D01*
X158475925Y-76812155D01*
X158501466Y-76800408D01*
X158541312Y-76792298D01*
X158598611Y-76787154D01*
X158676516Y-76784308D01*
X158778177Y-76783091D01*
X158906745Y-76782834D01*
X159293079Y-76782834D01*
X159324229Y-76822435D01*
G36*
X159324229Y-76822435D02*
G01*
X159330818Y-76831334D01*
X159338599Y-76845408D01*
X159344538Y-76864163D01*
X159348884Y-76891223D01*
X159351883Y-76930214D01*
X159353785Y-76984763D01*
X159354836Y-77058493D01*
X159355285Y-77155032D01*
X159355379Y-77278004D01*
X159355341Y-77365763D01*
X159355032Y-77470031D01*
X159354206Y-77550269D01*
X159352618Y-77610045D01*
X159350025Y-77652926D01*
X159346184Y-77682480D01*
X159340851Y-77702276D01*
X159333783Y-77715881D01*
X159324735Y-77726864D01*
X159318724Y-77733065D01*
X159307767Y-77741701D01*
X159292643Y-77748240D01*
X159269653Y-77752974D01*
X159235097Y-77756193D01*
X159185279Y-77758190D01*
X159116497Y-77759255D01*
X159025054Y-77759680D01*
X158907250Y-77759758D01*
X158881056Y-77759749D01*
X158765195Y-77759394D01*
X158675125Y-77758375D01*
X158607286Y-77756492D01*
X158558117Y-77753547D01*
X158524055Y-77749343D01*
X158501539Y-77743680D01*
X158487008Y-77736361D01*
X158473038Y-77723066D01*
X158455383Y-77681638D01*
X158456957Y-77633858D01*
X158478478Y-77591858D01*
X158481393Y-77588828D01*
X158492959Y-77580483D01*
X158510722Y-77574271D01*
X158538658Y-77569882D01*
X158580744Y-77567008D01*
X158640958Y-77565338D01*
X158723275Y-77564563D01*
X158831673Y-77564373D01*
X159159995Y-77564373D01*
X159159995Y-77353959D01*
X158943731Y-77353959D01*
X158896243Y-77353852D01*
X158821993Y-77352790D01*
X158769886Y-77350121D01*
X158734667Y-77345273D01*
X158711078Y-77337673D01*
X158693864Y-77326749D01*
X158689014Y-77322510D01*
X158664507Y-77281271D01*
X158663663Y-77232895D01*
X158687013Y-77188135D01*
X158687096Y-77188044D01*
X158699971Y-77176559D01*
X158717670Y-77168497D01*
X158745239Y-77163263D01*
X158787724Y-77160261D01*
X158850172Y-77158897D01*
X158937630Y-77158574D01*
X159161495Y-77158574D01*
X159156987Y-77072154D01*
X159152480Y-76985734D01*
X158830188Y-76981669D01*
X158796882Y-76981233D01*
X158688217Y-76979263D01*
X158605247Y-76976089D01*
X158544519Y-76970769D01*
X158502578Y-76962364D01*
X158475971Y-76949930D01*
X158461242Y-76932527D01*
X158454938Y-76909214D01*
X158453604Y-76879050D01*
X158453612Y-76875900D01*
X158455148Y-76849232D01*
X158461536Y-76828206D01*
X158475925Y-76812155D01*
X158501466Y-76800408D01*
X158541312Y-76792298D01*
X158598611Y-76787154D01*
X158676516Y-76784308D01*
X158778177Y-76783091D01*
X158906745Y-76782834D01*
X159293079Y-76782834D01*
X159324229Y-76822435D01*
G37*
X165550913Y-76782856D02*
X165653556Y-76783112D01*
X165732035Y-76783890D01*
X165790065Y-76785476D01*
X165831362Y-76788156D01*
X165859643Y-76792214D01*
X165878625Y-76797936D01*
X165892022Y-76805607D01*
X165903553Y-76815514D01*
X165905929Y-76817751D01*
X165915573Y-76827788D01*
X165923084Y-76839794D01*
X165928730Y-76857281D01*
X165932776Y-76883758D01*
X165935489Y-76922739D01*
X165937135Y-76977734D01*
X165937981Y-77052254D01*
X165938293Y-77149811D01*
X165938338Y-77273916D01*
X165938289Y-77370825D01*
X165937958Y-77474905D01*
X165937111Y-77555072D01*
X165935517Y-77614822D01*
X165932946Y-77657652D01*
X165929168Y-77687058D01*
X165923951Y-77706536D01*
X165917064Y-77719584D01*
X165908279Y-77729698D01*
X165903840Y-77733928D01*
X165892494Y-77742064D01*
X165876515Y-77748287D01*
X165852270Y-77752854D01*
X165816128Y-77756019D01*
X165764456Y-77758037D01*
X165693621Y-77759163D01*
X165599991Y-77759651D01*
X165479936Y-77759758D01*
X165423874Y-77759742D01*
X165315838Y-77759499D01*
X165232638Y-77758763D01*
X165170642Y-77757278D01*
X165126218Y-77754789D01*
X165095733Y-77751042D01*
X165075555Y-77745781D01*
X165062052Y-77738751D01*
X165051592Y-77729698D01*
X165031986Y-77700942D01*
X165021533Y-77662065D01*
X165028854Y-77630237D01*
X165051592Y-77594432D01*
X165058221Y-77588297D01*
X165071235Y-77579927D01*
X165090028Y-77573769D01*
X165118646Y-77569487D01*
X165161136Y-77566744D01*
X165221544Y-77565202D01*
X165303917Y-77564524D01*
X165412302Y-77564373D01*
X165742953Y-77564373D01*
X165742953Y-77353959D01*
X165528368Y-77353959D01*
X165480682Y-77353765D01*
X165393313Y-77351472D01*
X165330418Y-77345567D01*
X165288167Y-77334777D01*
X165262730Y-77317828D01*
X165250277Y-77293445D01*
X165246977Y-77260355D01*
X165248039Y-77233387D01*
X165255031Y-77204329D01*
X165272064Y-77183891D01*
X165303138Y-77170583D01*
X165352250Y-77162920D01*
X165423401Y-77159413D01*
X165520589Y-77158574D01*
X165744453Y-77158574D01*
X165735439Y-76985734D01*
X165405638Y-76981675D01*
X165322307Y-76980505D01*
X165231161Y-76978582D01*
X165163389Y-76976012D01*
X165115123Y-76972483D01*
X165082495Y-76967685D01*
X165061639Y-76961309D01*
X165048686Y-76953044D01*
X165040677Y-76944519D01*
X165023358Y-76902340D01*
X165028098Y-76854828D01*
X165054426Y-76813479D01*
X165058756Y-76809587D01*
X165070711Y-76801131D01*
X165086825Y-76794671D01*
X165110798Y-76789939D01*
X165146330Y-76786668D01*
X165197120Y-76784589D01*
X165266869Y-76783436D01*
X165359277Y-76782940D01*
X165478043Y-76782834D01*
X165550913Y-76782856D01*
G36*
X165550913Y-76782856D02*
G01*
X165653556Y-76783112D01*
X165732035Y-76783890D01*
X165790065Y-76785476D01*
X165831362Y-76788156D01*
X165859643Y-76792214D01*
X165878625Y-76797936D01*
X165892022Y-76805607D01*
X165903553Y-76815514D01*
X165905929Y-76817751D01*
X165915573Y-76827788D01*
X165923084Y-76839794D01*
X165928730Y-76857281D01*
X165932776Y-76883758D01*
X165935489Y-76922739D01*
X165937135Y-76977734D01*
X165937981Y-77052254D01*
X165938293Y-77149811D01*
X165938338Y-77273916D01*
X165938289Y-77370825D01*
X165937958Y-77474905D01*
X165937111Y-77555072D01*
X165935517Y-77614822D01*
X165932946Y-77657652D01*
X165929168Y-77687058D01*
X165923951Y-77706536D01*
X165917064Y-77719584D01*
X165908279Y-77729698D01*
X165903840Y-77733928D01*
X165892494Y-77742064D01*
X165876515Y-77748287D01*
X165852270Y-77752854D01*
X165816128Y-77756019D01*
X165764456Y-77758037D01*
X165693621Y-77759163D01*
X165599991Y-77759651D01*
X165479936Y-77759758D01*
X165423874Y-77759742D01*
X165315838Y-77759499D01*
X165232638Y-77758763D01*
X165170642Y-77757278D01*
X165126218Y-77754789D01*
X165095733Y-77751042D01*
X165075555Y-77745781D01*
X165062052Y-77738751D01*
X165051592Y-77729698D01*
X165031986Y-77700942D01*
X165021533Y-77662065D01*
X165028854Y-77630237D01*
X165051592Y-77594432D01*
X165058221Y-77588297D01*
X165071235Y-77579927D01*
X165090028Y-77573769D01*
X165118646Y-77569487D01*
X165161136Y-77566744D01*
X165221544Y-77565202D01*
X165303917Y-77564524D01*
X165412302Y-77564373D01*
X165742953Y-77564373D01*
X165742953Y-77353959D01*
X165528368Y-77353959D01*
X165480682Y-77353765D01*
X165393313Y-77351472D01*
X165330418Y-77345567D01*
X165288167Y-77334777D01*
X165262730Y-77317828D01*
X165250277Y-77293445D01*
X165246977Y-77260355D01*
X165248039Y-77233387D01*
X165255031Y-77204329D01*
X165272064Y-77183891D01*
X165303138Y-77170583D01*
X165352250Y-77162920D01*
X165423401Y-77159413D01*
X165520589Y-77158574D01*
X165744453Y-77158574D01*
X165735439Y-76985734D01*
X165405638Y-76981675D01*
X165322307Y-76980505D01*
X165231161Y-76978582D01*
X165163389Y-76976012D01*
X165115123Y-76972483D01*
X165082495Y-76967685D01*
X165061639Y-76961309D01*
X165048686Y-76953044D01*
X165040677Y-76944519D01*
X165023358Y-76902340D01*
X165028098Y-76854828D01*
X165054426Y-76813479D01*
X165058756Y-76809587D01*
X165070711Y-76801131D01*
X165086825Y-76794671D01*
X165110798Y-76789939D01*
X165146330Y-76786668D01*
X165197120Y-76784589D01*
X165266869Y-76783436D01*
X165359277Y-76782940D01*
X165478043Y-76782834D01*
X165550913Y-76782856D01*
G37*
X154145101Y-76795364D02*
X154169012Y-76820009D01*
X154196439Y-76861390D01*
X154229500Y-76922214D01*
X154270313Y-77005187D01*
X154320997Y-77113018D01*
X154340480Y-77154800D01*
X154380086Y-77238920D01*
X154414828Y-77311620D01*
X154442779Y-77368931D01*
X154462013Y-77406879D01*
X154470604Y-77421493D01*
X154472413Y-77420720D01*
X154485716Y-77402151D01*
X154508737Y-77362825D01*
X154538821Y-77307418D01*
X154573315Y-77240604D01*
X154594580Y-77198682D01*
X154633123Y-77124986D01*
X154663063Y-77073041D01*
X154687315Y-77039121D01*
X154708791Y-77019503D01*
X154730405Y-77010464D01*
X154755070Y-77008278D01*
X154769053Y-77008911D01*
X154790509Y-77014512D01*
X154810898Y-77028976D01*
X154832996Y-77055966D01*
X154859582Y-77099149D01*
X154893433Y-77162189D01*
X154937327Y-77248752D01*
X154950285Y-77274387D01*
X154982847Y-77336520D01*
X155009788Y-77384665D01*
X155028603Y-77414473D01*
X155036790Y-77421592D01*
X155038610Y-77417237D01*
X155051091Y-77389399D01*
X155073539Y-77340220D01*
X155104049Y-77273850D01*
X155140716Y-77194438D01*
X155181635Y-77106131D01*
X155217202Y-77029949D01*
X155256642Y-76947419D01*
X155287358Y-76886524D01*
X155311294Y-76843866D01*
X155330395Y-76816049D01*
X155346606Y-76799677D01*
X155361871Y-76791355D01*
X155374399Y-76787504D01*
X155407823Y-76787306D01*
X155443960Y-76807732D01*
X155445691Y-76809044D01*
X155475093Y-76839180D01*
X155489802Y-76868769D01*
X155489864Y-76869621D01*
X155483819Y-76893135D01*
X155466692Y-76939155D01*
X155440386Y-77003520D01*
X155406803Y-77082069D01*
X155367845Y-77170645D01*
X155325415Y-77265085D01*
X155281415Y-77361231D01*
X155237747Y-77454923D01*
X155196313Y-77542000D01*
X155159016Y-77618304D01*
X155127757Y-77679673D01*
X155104439Y-77721949D01*
X155090964Y-77740971D01*
X155045155Y-77758769D01*
X154989641Y-77750300D01*
X154982499Y-77744046D01*
X154961425Y-77714555D01*
X154931866Y-77665614D01*
X154896696Y-77602085D01*
X154858787Y-77528831D01*
X154752579Y-77316821D01*
X154655141Y-77511987D01*
X154642233Y-77537670D01*
X154606314Y-77607364D01*
X154574324Y-77666995D01*
X154549342Y-77710910D01*
X154534449Y-77733456D01*
X154532923Y-77735111D01*
X154495484Y-77755463D01*
X154448804Y-77757704D01*
X154407477Y-77740971D01*
X154404247Y-77737178D01*
X154387924Y-77709718D01*
X154361647Y-77659724D01*
X154327159Y-77590722D01*
X154286203Y-77506238D01*
X154240523Y-77409797D01*
X154191862Y-77304927D01*
X154164915Y-77246183D01*
X154115957Y-77138705D01*
X154078071Y-77053926D01*
X154050080Y-76988777D01*
X154030805Y-76940188D01*
X154019071Y-76905091D01*
X154013698Y-76880416D01*
X154013509Y-76863096D01*
X154017327Y-76850060D01*
X154036841Y-76822258D01*
X154072259Y-76795230D01*
X154073265Y-76794774D01*
X154099346Y-76785454D01*
X154122585Y-76784748D01*
X154145101Y-76795364D01*
G36*
X154145101Y-76795364D02*
G01*
X154169012Y-76820009D01*
X154196439Y-76861390D01*
X154229500Y-76922214D01*
X154270313Y-77005187D01*
X154320997Y-77113018D01*
X154340480Y-77154800D01*
X154380086Y-77238920D01*
X154414828Y-77311620D01*
X154442779Y-77368931D01*
X154462013Y-77406879D01*
X154470604Y-77421493D01*
X154472413Y-77420720D01*
X154485716Y-77402151D01*
X154508737Y-77362825D01*
X154538821Y-77307418D01*
X154573315Y-77240604D01*
X154594580Y-77198682D01*
X154633123Y-77124986D01*
X154663063Y-77073041D01*
X154687315Y-77039121D01*
X154708791Y-77019503D01*
X154730405Y-77010464D01*
X154755070Y-77008278D01*
X154769053Y-77008911D01*
X154790509Y-77014512D01*
X154810898Y-77028976D01*
X154832996Y-77055966D01*
X154859582Y-77099149D01*
X154893433Y-77162189D01*
X154937327Y-77248752D01*
X154950285Y-77274387D01*
X154982847Y-77336520D01*
X155009788Y-77384665D01*
X155028603Y-77414473D01*
X155036790Y-77421592D01*
X155038610Y-77417237D01*
X155051091Y-77389399D01*
X155073539Y-77340220D01*
X155104049Y-77273850D01*
X155140716Y-77194438D01*
X155181635Y-77106131D01*
X155217202Y-77029949D01*
X155256642Y-76947419D01*
X155287358Y-76886524D01*
X155311294Y-76843866D01*
X155330395Y-76816049D01*
X155346606Y-76799677D01*
X155361871Y-76791355D01*
X155374399Y-76787504D01*
X155407823Y-76787306D01*
X155443960Y-76807732D01*
X155445691Y-76809044D01*
X155475093Y-76839180D01*
X155489802Y-76868769D01*
X155489864Y-76869621D01*
X155483819Y-76893135D01*
X155466692Y-76939155D01*
X155440386Y-77003520D01*
X155406803Y-77082069D01*
X155367845Y-77170645D01*
X155325415Y-77265085D01*
X155281415Y-77361231D01*
X155237747Y-77454923D01*
X155196313Y-77542000D01*
X155159016Y-77618304D01*
X155127757Y-77679673D01*
X155104439Y-77721949D01*
X155090964Y-77740971D01*
X155045155Y-77758769D01*
X154989641Y-77750300D01*
X154982499Y-77744046D01*
X154961425Y-77714555D01*
X154931866Y-77665614D01*
X154896696Y-77602085D01*
X154858787Y-77528831D01*
X154752579Y-77316821D01*
X154655141Y-77511987D01*
X154642233Y-77537670D01*
X154606314Y-77607364D01*
X154574324Y-77666995D01*
X154549342Y-77710910D01*
X154534449Y-77733456D01*
X154532923Y-77735111D01*
X154495484Y-77755463D01*
X154448804Y-77757704D01*
X154407477Y-77740971D01*
X154404247Y-77737178D01*
X154387924Y-77709718D01*
X154361647Y-77659724D01*
X154327159Y-77590722D01*
X154286203Y-77506238D01*
X154240523Y-77409797D01*
X154191862Y-77304927D01*
X154164915Y-77246183D01*
X154115957Y-77138705D01*
X154078071Y-77053926D01*
X154050080Y-76988777D01*
X154030805Y-76940188D01*
X154019071Y-76905091D01*
X154013698Y-76880416D01*
X154013509Y-76863096D01*
X154017327Y-76850060D01*
X154036841Y-76822258D01*
X154072259Y-76795230D01*
X154073265Y-76794774D01*
X154099346Y-76785454D01*
X154122585Y-76784748D01*
X154145101Y-76795364D01*
G37*
X164198408Y-76783992D02*
X164286606Y-76791221D01*
X164360231Y-76804000D01*
X164427974Y-76823785D01*
X164522917Y-76867896D01*
X164591025Y-76924722D01*
X164632062Y-76994039D01*
X164645794Y-77075623D01*
X164644546Y-77117226D01*
X164636834Y-77150240D01*
X164617120Y-77179090D01*
X164579879Y-77215504D01*
X164569257Y-77225261D01*
X164537691Y-77253090D01*
X164507877Y-77275684D01*
X164475879Y-77294261D01*
X164437765Y-77310039D01*
X164389601Y-77324236D01*
X164327453Y-77338071D01*
X164247387Y-77352762D01*
X164145469Y-77369527D01*
X164017767Y-77389585D01*
X163993318Y-77393624D01*
X163910335Y-77411758D01*
X163850134Y-77432705D01*
X163815140Y-77455433D01*
X163807779Y-77478911D01*
X163811268Y-77484596D01*
X163835143Y-77504653D01*
X163872588Y-77526799D01*
X163889629Y-77534775D01*
X163917985Y-77544351D01*
X163953114Y-77550711D01*
X164000836Y-77554464D01*
X164066969Y-77556218D01*
X164157332Y-77556582D01*
X164181010Y-77556485D01*
X164271038Y-77555006D01*
X164357495Y-77552043D01*
X164431552Y-77547961D01*
X164484382Y-77543122D01*
X164531660Y-77537706D01*
X164570605Y-77536664D01*
X164595769Y-77542787D01*
X164615891Y-77557000D01*
X164620759Y-77561783D01*
X164642516Y-77604086D01*
X164640758Y-77651554D01*
X164615520Y-77692319D01*
X164588399Y-77707770D01*
X164540492Y-77724672D01*
X164484011Y-77738052D01*
X164479417Y-77738849D01*
X164422609Y-77745794D01*
X164346206Y-77751617D01*
X164259645Y-77755728D01*
X164172362Y-77757537D01*
X164150750Y-77757593D01*
X164019861Y-77754294D01*
X163913283Y-77743635D01*
X163826505Y-77724288D01*
X163755017Y-77694926D01*
X163694306Y-77654222D01*
X163639862Y-77600848D01*
X163613074Y-77565931D01*
X163597595Y-77526593D01*
X163593723Y-77473716D01*
X163593910Y-77457781D01*
X163599066Y-77414270D01*
X163615555Y-77378955D01*
X163649058Y-77337884D01*
X163677299Y-77308408D01*
X163712442Y-77278391D01*
X163752006Y-77253937D01*
X163800240Y-77233626D01*
X163861393Y-77216036D01*
X163939712Y-77199747D01*
X164039447Y-77183337D01*
X164164847Y-77165386D01*
X164225173Y-77156054D01*
X164315645Y-77136670D01*
X164381062Y-77114704D01*
X164420427Y-77090875D01*
X164432743Y-77065906D01*
X164417011Y-77040517D01*
X164372235Y-77015429D01*
X164368180Y-77013813D01*
X164306459Y-76997733D01*
X164223049Y-76986815D01*
X164125282Y-76981276D01*
X164020491Y-76981333D01*
X163916008Y-76987202D01*
X163819166Y-76999099D01*
X163813938Y-76999963D01*
X163748946Y-77010224D01*
X163706007Y-77015032D01*
X163678052Y-77014237D01*
X163658010Y-77007685D01*
X163638811Y-76995225D01*
X163637254Y-76994066D01*
X163604613Y-76953628D01*
X163598231Y-76906363D01*
X163619276Y-76860323D01*
X163625328Y-76854390D01*
X163664755Y-76834234D01*
X163727305Y-76816762D01*
X163807591Y-76802383D01*
X163900230Y-76791508D01*
X163999835Y-76784545D01*
X164101023Y-76781903D01*
X164198408Y-76783992D01*
G36*
X164198408Y-76783992D02*
G01*
X164286606Y-76791221D01*
X164360231Y-76804000D01*
X164427974Y-76823785D01*
X164522917Y-76867896D01*
X164591025Y-76924722D01*
X164632062Y-76994039D01*
X164645794Y-77075623D01*
X164644546Y-77117226D01*
X164636834Y-77150240D01*
X164617120Y-77179090D01*
X164579879Y-77215504D01*
X164569257Y-77225261D01*
X164537691Y-77253090D01*
X164507877Y-77275684D01*
X164475879Y-77294261D01*
X164437765Y-77310039D01*
X164389601Y-77324236D01*
X164327453Y-77338071D01*
X164247387Y-77352762D01*
X164145469Y-77369527D01*
X164017767Y-77389585D01*
X163993318Y-77393624D01*
X163910335Y-77411758D01*
X163850134Y-77432705D01*
X163815140Y-77455433D01*
X163807779Y-77478911D01*
X163811268Y-77484596D01*
X163835143Y-77504653D01*
X163872588Y-77526799D01*
X163889629Y-77534775D01*
X163917985Y-77544351D01*
X163953114Y-77550711D01*
X164000836Y-77554464D01*
X164066969Y-77556218D01*
X164157332Y-77556582D01*
X164181010Y-77556485D01*
X164271038Y-77555006D01*
X164357495Y-77552043D01*
X164431552Y-77547961D01*
X164484382Y-77543122D01*
X164531660Y-77537706D01*
X164570605Y-77536664D01*
X164595769Y-77542787D01*
X164615891Y-77557000D01*
X164620759Y-77561783D01*
X164642516Y-77604086D01*
X164640758Y-77651554D01*
X164615520Y-77692319D01*
X164588399Y-77707770D01*
X164540492Y-77724672D01*
X164484011Y-77738052D01*
X164479417Y-77738849D01*
X164422609Y-77745794D01*
X164346206Y-77751617D01*
X164259645Y-77755728D01*
X164172362Y-77757537D01*
X164150750Y-77757593D01*
X164019861Y-77754294D01*
X163913283Y-77743635D01*
X163826505Y-77724288D01*
X163755017Y-77694926D01*
X163694306Y-77654222D01*
X163639862Y-77600848D01*
X163613074Y-77565931D01*
X163597595Y-77526593D01*
X163593723Y-77473716D01*
X163593910Y-77457781D01*
X163599066Y-77414270D01*
X163615555Y-77378955D01*
X163649058Y-77337884D01*
X163677299Y-77308408D01*
X163712442Y-77278391D01*
X163752006Y-77253937D01*
X163800240Y-77233626D01*
X163861393Y-77216036D01*
X163939712Y-77199747D01*
X164039447Y-77183337D01*
X164164847Y-77165386D01*
X164225173Y-77156054D01*
X164315645Y-77136670D01*
X164381062Y-77114704D01*
X164420427Y-77090875D01*
X164432743Y-77065906D01*
X164417011Y-77040517D01*
X164372235Y-77015429D01*
X164368180Y-77013813D01*
X164306459Y-76997733D01*
X164223049Y-76986815D01*
X164125282Y-76981276D01*
X164020491Y-76981333D01*
X163916008Y-76987202D01*
X163819166Y-76999099D01*
X163813938Y-76999963D01*
X163748946Y-77010224D01*
X163706007Y-77015032D01*
X163678052Y-77014237D01*
X163658010Y-77007685D01*
X163638811Y-76995225D01*
X163637254Y-76994066D01*
X163604613Y-76953628D01*
X163598231Y-76906363D01*
X163619276Y-76860323D01*
X163625328Y-76854390D01*
X163664755Y-76834234D01*
X163727305Y-76816762D01*
X163807591Y-76802383D01*
X163900230Y-76791508D01*
X163999835Y-76784545D01*
X164101023Y-76781903D01*
X164198408Y-76783992D01*
G37*
X159033727Y-69742455D02*
X159277531Y-69764837D01*
X159504025Y-69809975D01*
X159721635Y-69879769D01*
X159938784Y-69976120D01*
X160153738Y-70099139D01*
X160384427Y-70266846D01*
X160598352Y-70460747D01*
X160790804Y-70676042D01*
X160957073Y-70907931D01*
X161092446Y-71151614D01*
X161104734Y-71177682D01*
X161207643Y-71429305D01*
X161285839Y-71690769D01*
X161340332Y-71967070D01*
X161372134Y-72263203D01*
X161382253Y-72584163D01*
X161369949Y-72915952D01*
X161330894Y-73242700D01*
X161264483Y-73548573D01*
X161170120Y-73835741D01*
X161047213Y-74106373D01*
X160895166Y-74362638D01*
X160752343Y-74558424D01*
X160555136Y-74778713D01*
X160340189Y-74967398D01*
X160107596Y-75124417D01*
X159857451Y-75249709D01*
X159589850Y-75343210D01*
X159304885Y-75404861D01*
X159301633Y-75405341D01*
X159246755Y-75410156D01*
X159163942Y-75413728D01*
X159060851Y-75415889D01*
X158945139Y-75416474D01*
X158824465Y-75415315D01*
X158739890Y-75413616D01*
X158614405Y-75409682D01*
X158513851Y-75404050D01*
X158430976Y-75396118D01*
X158358527Y-75385287D01*
X158289250Y-75370954D01*
X158211309Y-75352431D01*
X158129992Y-75331338D01*
X158056449Y-75309211D01*
X157984005Y-75283457D01*
X157905986Y-75251484D01*
X157815718Y-75210702D01*
X157706524Y-75158517D01*
X157571732Y-75092339D01*
X157198929Y-74908101D01*
X157497521Y-74417655D01*
X157536612Y-74353465D01*
X157606843Y-74238234D01*
X157669704Y-74135218D01*
X157722897Y-74048172D01*
X157764126Y-73980856D01*
X157791093Y-73937025D01*
X157801500Y-73920439D01*
X157804395Y-73920934D01*
X157827713Y-73937166D01*
X157868679Y-73970853D01*
X157920820Y-74016769D01*
X158013680Y-74096102D01*
X158179455Y-74213414D01*
X158340296Y-74295195D01*
X158456524Y-74336035D01*
X158653115Y-74377772D01*
X158846271Y-74385170D01*
X159033192Y-74358733D01*
X159211076Y-74298964D01*
X159377123Y-74206367D01*
X159528530Y-74081446D01*
X159612779Y-73989438D01*
X159731467Y-73819255D01*
X159828857Y-73621766D01*
X159905412Y-73395960D01*
X159961600Y-73140825D01*
X159964149Y-73124986D01*
X159975926Y-73022327D01*
X159984693Y-72894775D01*
X159990379Y-72751046D01*
X159992914Y-72599855D01*
X159992226Y-72449917D01*
X159988245Y-72309948D01*
X159980899Y-72188665D01*
X159970118Y-72094781D01*
X159928793Y-71882116D01*
X159859258Y-71633694D01*
X159771808Y-71416205D01*
X159666558Y-71229817D01*
X159543625Y-71074697D01*
X159403128Y-70951014D01*
X159245181Y-70858936D01*
X159069903Y-70798633D01*
X159031014Y-70791148D01*
X158933559Y-70781375D01*
X158819666Y-70778185D01*
X158702097Y-70781403D01*
X158593610Y-70790853D01*
X158506965Y-70806360D01*
X158362625Y-70855737D01*
X158195121Y-70945880D01*
X158045973Y-71064508D01*
X158019649Y-71089497D01*
X157971950Y-71133709D01*
X157938238Y-71163466D01*
X157924542Y-71173365D01*
X157921170Y-71168631D01*
X157900416Y-71138737D01*
X157862921Y-71084457D01*
X157811163Y-71009386D01*
X157747621Y-70917118D01*
X157674770Y-70811247D01*
X157595090Y-70695368D01*
X157269179Y-70221241D01*
X157341985Y-70199428D01*
X157349583Y-70196956D01*
X157399038Y-70177322D01*
X157470340Y-70145663D01*
X157555121Y-70105786D01*
X157645013Y-70061500D01*
X157684185Y-70041920D01*
X157901697Y-69940833D01*
X158102176Y-69862662D01*
X158293331Y-69805409D01*
X158482874Y-69767073D01*
X158678515Y-69745655D01*
X158887965Y-69739155D01*
X159033727Y-69742455D01*
G36*
X159033727Y-69742455D02*
G01*
X159277531Y-69764837D01*
X159504025Y-69809975D01*
X159721635Y-69879769D01*
X159938784Y-69976120D01*
X160153738Y-70099139D01*
X160384427Y-70266846D01*
X160598352Y-70460747D01*
X160790804Y-70676042D01*
X160957073Y-70907931D01*
X161092446Y-71151614D01*
X161104734Y-71177682D01*
X161207643Y-71429305D01*
X161285839Y-71690769D01*
X161340332Y-71967070D01*
X161372134Y-72263203D01*
X161382253Y-72584163D01*
X161369949Y-72915952D01*
X161330894Y-73242700D01*
X161264483Y-73548573D01*
X161170120Y-73835741D01*
X161047213Y-74106373D01*
X160895166Y-74362638D01*
X160752343Y-74558424D01*
X160555136Y-74778713D01*
X160340189Y-74967398D01*
X160107596Y-75124417D01*
X159857451Y-75249709D01*
X159589850Y-75343210D01*
X159304885Y-75404861D01*
X159301633Y-75405341D01*
X159246755Y-75410156D01*
X159163942Y-75413728D01*
X159060851Y-75415889D01*
X158945139Y-75416474D01*
X158824465Y-75415315D01*
X158739890Y-75413616D01*
X158614405Y-75409682D01*
X158513851Y-75404050D01*
X158430976Y-75396118D01*
X158358527Y-75385287D01*
X158289250Y-75370954D01*
X158211309Y-75352431D01*
X158129992Y-75331338D01*
X158056449Y-75309211D01*
X157984005Y-75283457D01*
X157905986Y-75251484D01*
X157815718Y-75210702D01*
X157706524Y-75158517D01*
X157571732Y-75092339D01*
X157198929Y-74908101D01*
X157497521Y-74417655D01*
X157536612Y-74353465D01*
X157606843Y-74238234D01*
X157669704Y-74135218D01*
X157722897Y-74048172D01*
X157764126Y-73980856D01*
X157791093Y-73937025D01*
X157801500Y-73920439D01*
X157804395Y-73920934D01*
X157827713Y-73937166D01*
X157868679Y-73970853D01*
X157920820Y-74016769D01*
X158013680Y-74096102D01*
X158179455Y-74213414D01*
X158340296Y-74295195D01*
X158456524Y-74336035D01*
X158653115Y-74377772D01*
X158846271Y-74385170D01*
X159033192Y-74358733D01*
X159211076Y-74298964D01*
X159377123Y-74206367D01*
X159528530Y-74081446D01*
X159612779Y-73989438D01*
X159731467Y-73819255D01*
X159828857Y-73621766D01*
X159905412Y-73395960D01*
X159961600Y-73140825D01*
X159964149Y-73124986D01*
X159975926Y-73022327D01*
X159984693Y-72894775D01*
X159990379Y-72751046D01*
X159992914Y-72599855D01*
X159992226Y-72449917D01*
X159988245Y-72309948D01*
X159980899Y-72188665D01*
X159970118Y-72094781D01*
X159928793Y-71882116D01*
X159859258Y-71633694D01*
X159771808Y-71416205D01*
X159666558Y-71229817D01*
X159543625Y-71074697D01*
X159403128Y-70951014D01*
X159245181Y-70858936D01*
X159069903Y-70798633D01*
X159031014Y-70791148D01*
X158933559Y-70781375D01*
X158819666Y-70778185D01*
X158702097Y-70781403D01*
X158593610Y-70790853D01*
X158506965Y-70806360D01*
X158362625Y-70855737D01*
X158195121Y-70945880D01*
X158045973Y-71064508D01*
X158019649Y-71089497D01*
X157971950Y-71133709D01*
X157938238Y-71163466D01*
X157924542Y-71173365D01*
X157921170Y-71168631D01*
X157900416Y-71138737D01*
X157862921Y-71084457D01*
X157811163Y-71009386D01*
X157747621Y-70917118D01*
X157674770Y-70811247D01*
X157595090Y-70695368D01*
X157269179Y-70221241D01*
X157341985Y-70199428D01*
X157349583Y-70196956D01*
X157399038Y-70177322D01*
X157470340Y-70145663D01*
X157555121Y-70105786D01*
X157645013Y-70061500D01*
X157684185Y-70041920D01*
X157901697Y-69940833D01*
X158102176Y-69862662D01*
X158293331Y-69805409D01*
X158482874Y-69767073D01*
X158678515Y-69745655D01*
X158887965Y-69739155D01*
X159033727Y-69742455D01*
G37*
X153106998Y-73522961D02*
X153103148Y-73690857D01*
X153092140Y-73838926D01*
X153073122Y-73975222D01*
X153045242Y-74107799D01*
X153007647Y-74244710D01*
X152950636Y-74408360D01*
X152845929Y-74629281D01*
X152717491Y-74827158D01*
X152567286Y-75000121D01*
X152397280Y-75146300D01*
X152209438Y-75263825D01*
X152005725Y-75350826D01*
X151788105Y-75405433D01*
X151785486Y-75405871D01*
X151626446Y-75421174D01*
X151451702Y-75419131D01*
X151273713Y-75401003D01*
X151104939Y-75368048D01*
X150957841Y-75321525D01*
X150895054Y-75293215D01*
X150813280Y-75250185D01*
X150729252Y-75200970D01*
X150651738Y-75150987D01*
X150589505Y-75105653D01*
X150551322Y-75070384D01*
X150542556Y-75060701D01*
X150532107Y-75057316D01*
X150525122Y-75074120D01*
X150519975Y-75116469D01*
X150515036Y-75189719D01*
X150505965Y-75342353D01*
X149116253Y-75351857D01*
X149164332Y-75269817D01*
X149167198Y-75264967D01*
X149181178Y-75242196D01*
X149193862Y-75221911D01*
X149205316Y-75202349D01*
X149215608Y-75181748D01*
X149224808Y-75158344D01*
X149232983Y-75130377D01*
X149240202Y-75096084D01*
X149246533Y-75053702D01*
X149252044Y-75001470D01*
X149256803Y-74937624D01*
X149260878Y-74860403D01*
X149264339Y-74768044D01*
X149267252Y-74658785D01*
X149269687Y-74530864D01*
X149271711Y-74382518D01*
X149273345Y-74216980D01*
X150596679Y-74216980D01*
X150687393Y-74276481D01*
X150722279Y-74297915D01*
X150802158Y-74340735D01*
X150877893Y-74374834D01*
X150911061Y-74386379D01*
X151016598Y-74409428D01*
X151150036Y-74421197D01*
X151217889Y-74423646D01*
X151280873Y-74423090D01*
X151327759Y-74416799D01*
X151369813Y-74403050D01*
X151418302Y-74380116D01*
X151511488Y-74318683D01*
X151592217Y-74231782D01*
X151656838Y-74119793D01*
X151705966Y-73980963D01*
X151740214Y-73813535D01*
X151760199Y-73615753D01*
X151766534Y-73385864D01*
X151766226Y-73333599D01*
X151757118Y-73091439D01*
X151735002Y-72880726D01*
X151699340Y-72699238D01*
X151649594Y-72544751D01*
X151585226Y-72415043D01*
X151505698Y-72307890D01*
X151472705Y-72275187D01*
X151370453Y-72207056D01*
X151250419Y-72165597D01*
X151117803Y-72151046D01*
X150977806Y-72163638D01*
X150835626Y-72203609D01*
X150696465Y-72271195D01*
X150596679Y-72331008D01*
X150596679Y-74216980D01*
X149273345Y-74216980D01*
X149273394Y-74211986D01*
X149274802Y-74017505D01*
X149276005Y-73797312D01*
X149277070Y-73549645D01*
X149278066Y-73272742D01*
X149279061Y-72964841D01*
X149280124Y-72624180D01*
X149281322Y-72248996D01*
X149290393Y-69482210D01*
X150011572Y-69477466D01*
X150064017Y-69477147D01*
X150218322Y-69476513D01*
X150359457Y-69476385D01*
X150483570Y-69476735D01*
X150586808Y-69477536D01*
X150665319Y-69478764D01*
X150715250Y-69480391D01*
X150732750Y-69482391D01*
X150730511Y-69488729D01*
X150713810Y-69518780D01*
X150686148Y-69562481D01*
X150683388Y-69566659D01*
X150661941Y-69600401D01*
X150643958Y-69633230D01*
X150629135Y-69668529D01*
X150617167Y-69709679D01*
X150607749Y-69760062D01*
X150600576Y-69823058D01*
X150595343Y-69902051D01*
X150591745Y-70000421D01*
X150589477Y-70121550D01*
X150588235Y-70268820D01*
X150587714Y-70445612D01*
X150587607Y-70655308D01*
X150587798Y-70819027D01*
X150588380Y-70979763D01*
X150589312Y-71125507D01*
X150590552Y-71252710D01*
X150592057Y-71357824D01*
X150593786Y-71437299D01*
X150595695Y-71487587D01*
X150597743Y-71505138D01*
X150604348Y-71502414D01*
X150633383Y-71483231D01*
X150674850Y-71451727D01*
X150734965Y-71409360D01*
X150847914Y-71346935D01*
X150977009Y-71291252D01*
X151110202Y-71247949D01*
X151222108Y-71225868D01*
X151361480Y-71211792D01*
X151512319Y-71206916D01*
X151662986Y-71211244D01*
X151801839Y-71224783D01*
X151917238Y-71247539D01*
X152034740Y-71285871D01*
X152230762Y-71378795D01*
X152412264Y-71502332D01*
X152575897Y-71653636D01*
X152718312Y-71829864D01*
X152836163Y-72028170D01*
X152865421Y-72088980D01*
X152947411Y-72294094D01*
X153011512Y-72516709D01*
X153058535Y-72760749D01*
X153089288Y-73030137D01*
X153104583Y-73328798D01*
X153105293Y-73385864D01*
X153106998Y-73522961D01*
G36*
X153106998Y-73522961D02*
G01*
X153103148Y-73690857D01*
X153092140Y-73838926D01*
X153073122Y-73975222D01*
X153045242Y-74107799D01*
X153007647Y-74244710D01*
X152950636Y-74408360D01*
X152845929Y-74629281D01*
X152717491Y-74827158D01*
X152567286Y-75000121D01*
X152397280Y-75146300D01*
X152209438Y-75263825D01*
X152005725Y-75350826D01*
X151788105Y-75405433D01*
X151785486Y-75405871D01*
X151626446Y-75421174D01*
X151451702Y-75419131D01*
X151273713Y-75401003D01*
X151104939Y-75368048D01*
X150957841Y-75321525D01*
X150895054Y-75293215D01*
X150813280Y-75250185D01*
X150729252Y-75200970D01*
X150651738Y-75150987D01*
X150589505Y-75105653D01*
X150551322Y-75070384D01*
X150542556Y-75060701D01*
X150532107Y-75057316D01*
X150525122Y-75074120D01*
X150519975Y-75116469D01*
X150515036Y-75189719D01*
X150505965Y-75342353D01*
X149116253Y-75351857D01*
X149164332Y-75269817D01*
X149167198Y-75264967D01*
X149181178Y-75242196D01*
X149193862Y-75221911D01*
X149205316Y-75202349D01*
X149215608Y-75181748D01*
X149224808Y-75158344D01*
X149232983Y-75130377D01*
X149240202Y-75096084D01*
X149246533Y-75053702D01*
X149252044Y-75001470D01*
X149256803Y-74937624D01*
X149260878Y-74860403D01*
X149264339Y-74768044D01*
X149267252Y-74658785D01*
X149269687Y-74530864D01*
X149271711Y-74382518D01*
X149273345Y-74216980D01*
X150596679Y-74216980D01*
X150687393Y-74276481D01*
X150722279Y-74297915D01*
X150802158Y-74340735D01*
X150877893Y-74374834D01*
X150911061Y-74386379D01*
X151016598Y-74409428D01*
X151150036Y-74421197D01*
X151217889Y-74423646D01*
X151280873Y-74423090D01*
X151327759Y-74416799D01*
X151369813Y-74403050D01*
X151418302Y-74380116D01*
X151511488Y-74318683D01*
X151592217Y-74231782D01*
X151656838Y-74119793D01*
X151705966Y-73980963D01*
X151740214Y-73813535D01*
X151760199Y-73615753D01*
X151766534Y-73385864D01*
X151766226Y-73333599D01*
X151757118Y-73091439D01*
X151735002Y-72880726D01*
X151699340Y-72699238D01*
X151649594Y-72544751D01*
X151585226Y-72415043D01*
X151505698Y-72307890D01*
X151472705Y-72275187D01*
X151370453Y-72207056D01*
X151250419Y-72165597D01*
X151117803Y-72151046D01*
X150977806Y-72163638D01*
X150835626Y-72203609D01*
X150696465Y-72271195D01*
X150596679Y-72331008D01*
X150596679Y-74216980D01*
X149273345Y-74216980D01*
X149273394Y-74211986D01*
X149274802Y-74017505D01*
X149276005Y-73797312D01*
X149277070Y-73549645D01*
X149278066Y-73272742D01*
X149279061Y-72964841D01*
X149280124Y-72624180D01*
X149281322Y-72248996D01*
X149290393Y-69482210D01*
X150011572Y-69477466D01*
X150064017Y-69477147D01*
X150218322Y-69476513D01*
X150359457Y-69476385D01*
X150483570Y-69476735D01*
X150586808Y-69477536D01*
X150665319Y-69478764D01*
X150715250Y-69480391D01*
X150732750Y-69482391D01*
X150730511Y-69488729D01*
X150713810Y-69518780D01*
X150686148Y-69562481D01*
X150683388Y-69566659D01*
X150661941Y-69600401D01*
X150643958Y-69633230D01*
X150629135Y-69668529D01*
X150617167Y-69709679D01*
X150607749Y-69760062D01*
X150600576Y-69823058D01*
X150595343Y-69902051D01*
X150591745Y-70000421D01*
X150589477Y-70121550D01*
X150588235Y-70268820D01*
X150587714Y-70445612D01*
X150587607Y-70655308D01*
X150587798Y-70819027D01*
X150588380Y-70979763D01*
X150589312Y-71125507D01*
X150590552Y-71252710D01*
X150592057Y-71357824D01*
X150593786Y-71437299D01*
X150595695Y-71487587D01*
X150597743Y-71505138D01*
X150604348Y-71502414D01*
X150633383Y-71483231D01*
X150674850Y-71451727D01*
X150734965Y-71409360D01*
X150847914Y-71346935D01*
X150977009Y-71291252D01*
X151110202Y-71247949D01*
X151222108Y-71225868D01*
X151361480Y-71211792D01*
X151512319Y-71206916D01*
X151662986Y-71211244D01*
X151801839Y-71224783D01*
X151917238Y-71247539D01*
X152034740Y-71285871D01*
X152230762Y-71378795D01*
X152412264Y-71502332D01*
X152575897Y-71653636D01*
X152718312Y-71829864D01*
X152836163Y-72028170D01*
X152865421Y-72088980D01*
X152947411Y-72294094D01*
X153011512Y-72516709D01*
X153058535Y-72760749D01*
X153089288Y-73030137D01*
X153104583Y-73328798D01*
X153105293Y-73385864D01*
X153106998Y-73522961D01*
G37*
X157207883Y-74093861D02*
X157199735Y-74240146D01*
X157182125Y-74376257D01*
X157155552Y-74489638D01*
X157113152Y-74606291D01*
X157014869Y-74798534D01*
X156889243Y-74967671D01*
X156737574Y-75112550D01*
X156561164Y-75232018D01*
X156361313Y-75324923D01*
X156139322Y-75390113D01*
X156048800Y-75404816D01*
X155919445Y-75415035D01*
X155778568Y-75417333D01*
X155637943Y-75411896D01*
X155509342Y-75398909D01*
X155404536Y-75378557D01*
X155351872Y-75362533D01*
X155232262Y-75315643D01*
X155110676Y-75256112D01*
X154999658Y-75190395D01*
X154911752Y-75124948D01*
X154910671Y-75124003D01*
X154862500Y-75083160D01*
X154825438Y-75054077D01*
X154807430Y-75042996D01*
X154805461Y-75045641D01*
X154801006Y-75074218D01*
X154797911Y-75127518D01*
X154796750Y-75197210D01*
X154796750Y-75351424D01*
X154116393Y-75351424D01*
X154098282Y-75351421D01*
X153946383Y-75351155D01*
X153806971Y-75350494D01*
X153684011Y-75349486D01*
X153581472Y-75348182D01*
X153503319Y-75346629D01*
X153453518Y-75344878D01*
X153436036Y-75342977D01*
X153436443Y-75341317D01*
X153447881Y-75316801D01*
X153471855Y-75270741D01*
X153504072Y-75211442D01*
X153572108Y-75088353D01*
X153582083Y-73873113D01*
X154869322Y-73873113D01*
X154869828Y-73969127D01*
X154872280Y-74070011D01*
X154877083Y-74142931D01*
X154884588Y-74192636D01*
X154895143Y-74223873D01*
X154908721Y-74246179D01*
X154959855Y-74306985D01*
X155028368Y-74370287D01*
X155103461Y-74426689D01*
X155174333Y-74466794D01*
X155213654Y-74481509D01*
X155304195Y-74501101D01*
X155422448Y-74511118D01*
X155547125Y-74509601D01*
X155665520Y-74488998D01*
X155764342Y-74446435D01*
X155849841Y-74379995D01*
X155873893Y-74355419D01*
X155936515Y-74271609D01*
X155970397Y-74181274D01*
X155980572Y-74072575D01*
X155977815Y-74015149D01*
X155950554Y-73896931D01*
X155893283Y-73795463D01*
X155804961Y-73709603D01*
X155684544Y-73638208D01*
X155530990Y-73580138D01*
X155469086Y-73564899D01*
X155394144Y-73554465D01*
X155299830Y-73548670D01*
X155177750Y-73546722D01*
X155157919Y-73546723D01*
X155066589Y-73547838D01*
X154988137Y-73550532D01*
X154930364Y-73554453D01*
X154901072Y-73559248D01*
X154897701Y-73560804D01*
X154886803Y-73570578D01*
X154879085Y-73590218D01*
X154874012Y-73625009D01*
X154871050Y-73680233D01*
X154869665Y-73761174D01*
X154869322Y-73873113D01*
X153582083Y-73873113D01*
X153582607Y-73809281D01*
X153584168Y-73622985D01*
X153586351Y-73385389D01*
X153588643Y-73179122D01*
X153591228Y-73001266D01*
X153594293Y-72848905D01*
X153598021Y-72719120D01*
X153602598Y-72608996D01*
X153608209Y-72515614D01*
X153615040Y-72436059D01*
X153623276Y-72367412D01*
X153633101Y-72306757D01*
X153644701Y-72251176D01*
X153658261Y-72197753D01*
X153673966Y-72143570D01*
X153692002Y-72085710D01*
X153763054Y-71904322D01*
X153860357Y-71736682D01*
X153981534Y-71593156D01*
X154127696Y-71472994D01*
X154299950Y-71375444D01*
X154499408Y-71299755D01*
X154727178Y-71245177D01*
X154984370Y-71210959D01*
X155074261Y-71204154D01*
X155225653Y-71199179D01*
X155375707Y-71203659D01*
X155531447Y-71218351D01*
X155699898Y-71244008D01*
X155888086Y-71281386D01*
X156103036Y-71331242D01*
X156152721Y-71343305D01*
X156277494Y-71372989D01*
X156395754Y-71400322D01*
X156500329Y-71423687D01*
X156584047Y-71441471D01*
X156639738Y-71452060D01*
X156768226Y-71473164D01*
X156587588Y-71910973D01*
X156542405Y-72020283D01*
X156497954Y-72127393D01*
X156459816Y-72218842D01*
X156429862Y-72290157D01*
X156409964Y-72336861D01*
X156401996Y-72354482D01*
X156400743Y-72354734D01*
X156377651Y-72346867D01*
X156332246Y-72326707D01*
X156272717Y-72297841D01*
X156148989Y-72241627D01*
X155978730Y-72180164D01*
X155804471Y-72133094D01*
X155633026Y-72101601D01*
X155471210Y-72086867D01*
X155325837Y-72090074D01*
X155203722Y-72112403D01*
X155118494Y-72147833D01*
X155021702Y-72220441D01*
X154947190Y-72318942D01*
X154897092Y-72440307D01*
X154873542Y-72581504D01*
X154865248Y-72711639D01*
X155298178Y-72712824D01*
X155444178Y-72714048D01*
X155605664Y-72718396D01*
X155743618Y-72726602D01*
X155865174Y-72739463D01*
X155977470Y-72757778D01*
X156087640Y-72782343D01*
X156202822Y-72813957D01*
X156375161Y-72874133D01*
X156577868Y-72973230D01*
X156755769Y-73094614D01*
X156907110Y-73236579D01*
X157030136Y-73397417D01*
X157123092Y-73575421D01*
X157184223Y-73768884D01*
X157193797Y-73820989D01*
X157206070Y-73949957D01*
X157207615Y-74072575D01*
X157207883Y-74093861D01*
G36*
X157207883Y-74093861D02*
G01*
X157199735Y-74240146D01*
X157182125Y-74376257D01*
X157155552Y-74489638D01*
X157113152Y-74606291D01*
X157014869Y-74798534D01*
X156889243Y-74967671D01*
X156737574Y-75112550D01*
X156561164Y-75232018D01*
X156361313Y-75324923D01*
X156139322Y-75390113D01*
X156048800Y-75404816D01*
X155919445Y-75415035D01*
X155778568Y-75417333D01*
X155637943Y-75411896D01*
X155509342Y-75398909D01*
X155404536Y-75378557D01*
X155351872Y-75362533D01*
X155232262Y-75315643D01*
X155110676Y-75256112D01*
X154999658Y-75190395D01*
X154911752Y-75124948D01*
X154910671Y-75124003D01*
X154862500Y-75083160D01*
X154825438Y-75054077D01*
X154807430Y-75042996D01*
X154805461Y-75045641D01*
X154801006Y-75074218D01*
X154797911Y-75127518D01*
X154796750Y-75197210D01*
X154796750Y-75351424D01*
X154116393Y-75351424D01*
X154098282Y-75351421D01*
X153946383Y-75351155D01*
X153806971Y-75350494D01*
X153684011Y-75349486D01*
X153581472Y-75348182D01*
X153503319Y-75346629D01*
X153453518Y-75344878D01*
X153436036Y-75342977D01*
X153436443Y-75341317D01*
X153447881Y-75316801D01*
X153471855Y-75270741D01*
X153504072Y-75211442D01*
X153572108Y-75088353D01*
X153582083Y-73873113D01*
X154869322Y-73873113D01*
X154869828Y-73969127D01*
X154872280Y-74070011D01*
X154877083Y-74142931D01*
X154884588Y-74192636D01*
X154895143Y-74223873D01*
X154908721Y-74246179D01*
X154959855Y-74306985D01*
X155028368Y-74370287D01*
X155103461Y-74426689D01*
X155174333Y-74466794D01*
X155213654Y-74481509D01*
X155304195Y-74501101D01*
X155422448Y-74511118D01*
X155547125Y-74509601D01*
X155665520Y-74488998D01*
X155764342Y-74446435D01*
X155849841Y-74379995D01*
X155873893Y-74355419D01*
X155936515Y-74271609D01*
X155970397Y-74181274D01*
X155980572Y-74072575D01*
X155977815Y-74015149D01*
X155950554Y-73896931D01*
X155893283Y-73795463D01*
X155804961Y-73709603D01*
X155684544Y-73638208D01*
X155530990Y-73580138D01*
X155469086Y-73564899D01*
X155394144Y-73554465D01*
X155299830Y-73548670D01*
X155177750Y-73546722D01*
X155157919Y-73546723D01*
X155066589Y-73547838D01*
X154988137Y-73550532D01*
X154930364Y-73554453D01*
X154901072Y-73559248D01*
X154897701Y-73560804D01*
X154886803Y-73570578D01*
X154879085Y-73590218D01*
X154874012Y-73625009D01*
X154871050Y-73680233D01*
X154869665Y-73761174D01*
X154869322Y-73873113D01*
X153582083Y-73873113D01*
X153582607Y-73809281D01*
X153584168Y-73622985D01*
X153586351Y-73385389D01*
X153588643Y-73179122D01*
X153591228Y-73001266D01*
X153594293Y-72848905D01*
X153598021Y-72719120D01*
X153602598Y-72608996D01*
X153608209Y-72515614D01*
X153615040Y-72436059D01*
X153623276Y-72367412D01*
X153633101Y-72306757D01*
X153644701Y-72251176D01*
X153658261Y-72197753D01*
X153673966Y-72143570D01*
X153692002Y-72085710D01*
X153763054Y-71904322D01*
X153860357Y-71736682D01*
X153981534Y-71593156D01*
X154127696Y-71472994D01*
X154299950Y-71375444D01*
X154499408Y-71299755D01*
X154727178Y-71245177D01*
X154984370Y-71210959D01*
X155074261Y-71204154D01*
X155225653Y-71199179D01*
X155375707Y-71203659D01*
X155531447Y-71218351D01*
X155699898Y-71244008D01*
X155888086Y-71281386D01*
X156103036Y-71331242D01*
X156152721Y-71343305D01*
X156277494Y-71372989D01*
X156395754Y-71400322D01*
X156500329Y-71423687D01*
X156584047Y-71441471D01*
X156639738Y-71452060D01*
X156768226Y-71473164D01*
X156587588Y-71910973D01*
X156542405Y-72020283D01*
X156497954Y-72127393D01*
X156459816Y-72218842D01*
X156429862Y-72290157D01*
X156409964Y-72336861D01*
X156401996Y-72354482D01*
X156400743Y-72354734D01*
X156377651Y-72346867D01*
X156332246Y-72326707D01*
X156272717Y-72297841D01*
X156148989Y-72241627D01*
X155978730Y-72180164D01*
X155804471Y-72133094D01*
X155633026Y-72101601D01*
X155471210Y-72086867D01*
X155325837Y-72090074D01*
X155203722Y-72112403D01*
X155118494Y-72147833D01*
X155021702Y-72220441D01*
X154947190Y-72318942D01*
X154897092Y-72440307D01*
X154873542Y-72581504D01*
X154865248Y-72711639D01*
X155298178Y-72712824D01*
X155444178Y-72714048D01*
X155605664Y-72718396D01*
X155743618Y-72726602D01*
X155865174Y-72739463D01*
X155977470Y-72757778D01*
X156087640Y-72782343D01*
X156202822Y-72813957D01*
X156375161Y-72874133D01*
X156577868Y-72973230D01*
X156755769Y-73094614D01*
X156907110Y-73236579D01*
X157030136Y-73397417D01*
X157123092Y-73575421D01*
X157184223Y-73768884D01*
X157193797Y-73820989D01*
X157206070Y-73949957D01*
X157207615Y-74072575D01*
X157207883Y-74093861D01*
G37*
X169379321Y-75387284D02*
X169377453Y-75527977D01*
X169375134Y-75649170D01*
X169372318Y-75752364D01*
X169368957Y-75839059D01*
X169365003Y-75910756D01*
X169360410Y-75968954D01*
X169355131Y-76015154D01*
X169349118Y-76050857D01*
X169342323Y-76077561D01*
X169334701Y-76096769D01*
X169326202Y-76109979D01*
X169316782Y-76118692D01*
X169306391Y-76124409D01*
X169294983Y-76128630D01*
X169282511Y-76132854D01*
X169268927Y-76138583D01*
X169261284Y-76141454D01*
X169247264Y-76144589D01*
X169226431Y-76147461D01*
X169197314Y-76150083D01*
X169158437Y-76152464D01*
X169108327Y-76154618D01*
X169045510Y-76156554D01*
X168968513Y-76158286D01*
X168875862Y-76159824D01*
X168766083Y-76161180D01*
X168637703Y-76162365D01*
X168489247Y-76163392D01*
X168319243Y-76164270D01*
X168126216Y-76165013D01*
X167908693Y-76165631D01*
X167665201Y-76166137D01*
X167394264Y-76166540D01*
X167094410Y-76166854D01*
X166764166Y-76167089D01*
X166402057Y-76167258D01*
X166006609Y-76167371D01*
X165576349Y-76167440D01*
X165440001Y-76167453D01*
X165019079Y-76167462D01*
X164632540Y-76167409D01*
X164278927Y-76167284D01*
X163956783Y-76167076D01*
X163664654Y-76166775D01*
X163401081Y-76166370D01*
X163164609Y-76165850D01*
X162953783Y-76165206D01*
X162767144Y-76164426D01*
X162603238Y-76163500D01*
X162460608Y-76162417D01*
X162337798Y-76161167D01*
X162233351Y-76159739D01*
X162145812Y-76158122D01*
X162073723Y-76156307D01*
X162015629Y-76154282D01*
X161970073Y-76152037D01*
X161935600Y-76149561D01*
X161910752Y-76146844D01*
X161894074Y-76143875D01*
X161884110Y-76140644D01*
X161880939Y-76139206D01*
X161867960Y-76134482D01*
X161856058Y-76131032D01*
X161845185Y-76127354D01*
X161835291Y-76121945D01*
X161826330Y-76113303D01*
X161818252Y-76099926D01*
X161811009Y-76080310D01*
X161804554Y-76052955D01*
X161798838Y-76016357D01*
X161793812Y-75969014D01*
X161789429Y-75909424D01*
X161785640Y-75836083D01*
X161782397Y-75747491D01*
X161779652Y-75642144D01*
X161777356Y-75518541D01*
X161775461Y-75375178D01*
X161774839Y-75308791D01*
X162253266Y-75308791D01*
X162253791Y-75315149D01*
X162263414Y-75320301D01*
X162285157Y-75324374D01*
X162322041Y-75327494D01*
X162377086Y-75329789D01*
X162453312Y-75331383D01*
X162553741Y-75332403D01*
X162681394Y-75332975D01*
X162839291Y-75333226D01*
X163030452Y-75333281D01*
X163831207Y-75333281D01*
X163763514Y-75210817D01*
X163695822Y-75088353D01*
X163695822Y-71532353D01*
X163763514Y-71409889D01*
X163831207Y-71287424D01*
X162399886Y-71287424D01*
X162394711Y-73169746D01*
X162389536Y-75052067D01*
X162338796Y-75160432D01*
X162312044Y-75214143D01*
X162281753Y-75267948D01*
X162258877Y-75301039D01*
X162258819Y-75301103D01*
X162253266Y-75308791D01*
X161774839Y-75308791D01*
X161773919Y-75210553D01*
X161772682Y-75023164D01*
X161771701Y-74811509D01*
X161770928Y-74574085D01*
X161770315Y-74309390D01*
X161769814Y-74015922D01*
X161769377Y-73692177D01*
X161768954Y-73336654D01*
X161768498Y-72947850D01*
X161767961Y-72524264D01*
X161767892Y-72472984D01*
X161767293Y-72052081D01*
X161766720Y-71665786D01*
X161766216Y-71312596D01*
X161765823Y-70991008D01*
X161765583Y-70699518D01*
X161765539Y-70436624D01*
X161765733Y-70200822D01*
X161766207Y-69990610D01*
X161767005Y-69804484D01*
X161768167Y-69640941D01*
X161769737Y-69498479D01*
X161771757Y-69375594D01*
X161774270Y-69270783D01*
X161777317Y-69182543D01*
X161780942Y-69109371D01*
X161785186Y-69049764D01*
X161790091Y-69002219D01*
X161795701Y-68965232D01*
X161802058Y-68937302D01*
X161809204Y-68916924D01*
X161817181Y-68902595D01*
X161826032Y-68892814D01*
X161835799Y-68886075D01*
X161846525Y-68880878D01*
X161858251Y-68875717D01*
X161871021Y-68869091D01*
X161874758Y-68866980D01*
X161931298Y-68846542D01*
X161993193Y-68838141D01*
X162062965Y-68838144D01*
X162064127Y-68996891D01*
X162064422Y-69015159D01*
X162086599Y-69200851D01*
X162143081Y-69375571D01*
X162233085Y-69537467D01*
X162355825Y-69684689D01*
X162421691Y-69744735D01*
X162568347Y-69844262D01*
X162728363Y-69913666D01*
X162897078Y-69952911D01*
X163069832Y-69961961D01*
X163241965Y-69940777D01*
X163408815Y-69889323D01*
X163545973Y-69817853D01*
X164153020Y-69817853D01*
X164232850Y-69875286D01*
X164300363Y-69929265D01*
X164395496Y-70017310D01*
X164503400Y-70127654D01*
X164619990Y-70256094D01*
X164741178Y-70398424D01*
X164772387Y-70436486D01*
X164825522Y-70501767D01*
X164894976Y-70587412D01*
X164978449Y-70690564D01*
X165073639Y-70808363D01*
X165178247Y-70937952D01*
X165289970Y-71076471D01*
X165406508Y-71221063D01*
X165459960Y-71287424D01*
X165525560Y-71368868D01*
X165644825Y-71517027D01*
X165762002Y-71662684D01*
X165874789Y-71802978D01*
X165980887Y-71935051D01*
X166077994Y-72056045D01*
X166163809Y-72163102D01*
X166236031Y-72253362D01*
X166292359Y-72323967D01*
X166330492Y-72372059D01*
X166348130Y-72394779D01*
X166349585Y-72403317D01*
X166344743Y-72419556D01*
X166332195Y-72445103D01*
X166310690Y-72481771D01*
X166278973Y-72531373D01*
X166235793Y-72595719D01*
X166179898Y-72676622D01*
X166110034Y-72775895D01*
X166024950Y-72895350D01*
X165923392Y-73036798D01*
X165804109Y-73202053D01*
X165665847Y-73392925D01*
X165507355Y-73611228D01*
X165381070Y-73784995D01*
X165226998Y-73996831D01*
X165091473Y-74182864D01*
X164972917Y-74345158D01*
X164869754Y-74485778D01*
X164780408Y-74606789D01*
X164703304Y-74710256D01*
X164636865Y-74798242D01*
X164579516Y-74872814D01*
X164529679Y-74936034D01*
X164485779Y-74989969D01*
X164446240Y-75036682D01*
X164409486Y-75078238D01*
X164373940Y-75116703D01*
X164338028Y-75154139D01*
X164300171Y-75192613D01*
X164160664Y-75333281D01*
X166036250Y-75333357D01*
X166030357Y-75219699D01*
X166030072Y-75213988D01*
X166028953Y-75168551D01*
X166031074Y-75125017D01*
X166037851Y-75081000D01*
X166050705Y-75034117D01*
X166071053Y-74981982D01*
X166100313Y-74922210D01*
X166139905Y-74852418D01*
X166191246Y-74770221D01*
X166255755Y-74673233D01*
X166334850Y-74559071D01*
X166429950Y-74425349D01*
X166542474Y-74269684D01*
X166673839Y-74089689D01*
X166825465Y-73882981D01*
X167360679Y-73154335D01*
X167365394Y-73999179D01*
X167365812Y-74077986D01*
X167366549Y-74290256D01*
X167366214Y-74470805D01*
X167364412Y-74623052D01*
X167360749Y-74750412D01*
X167354829Y-74856302D01*
X167346260Y-74944139D01*
X167334644Y-75017340D01*
X167319590Y-75079322D01*
X167300700Y-75133500D01*
X167277582Y-75183293D01*
X167249840Y-75232117D01*
X167217080Y-75283388D01*
X167184149Y-75333281D01*
X168895597Y-75333281D01*
X168851389Y-75274317D01*
X168844465Y-75264989D01*
X168789114Y-75179494D01*
X168750957Y-75093068D01*
X168725901Y-74994037D01*
X168709852Y-74870728D01*
X168709411Y-74865353D01*
X168707082Y-74814491D01*
X168704980Y-74729630D01*
X168703112Y-74612710D01*
X168701489Y-74465670D01*
X168700120Y-74290450D01*
X168699013Y-74088987D01*
X168698178Y-73863222D01*
X168697625Y-73615093D01*
X168697361Y-73346539D01*
X168697396Y-73059501D01*
X168697740Y-72755916D01*
X168698401Y-72437724D01*
X168699102Y-72152305D01*
X168699851Y-71841620D01*
X168700589Y-71563650D01*
X168701408Y-71316446D01*
X168702400Y-71098061D01*
X168703659Y-70906549D01*
X168705276Y-70739961D01*
X168707345Y-70596349D01*
X168709958Y-70473768D01*
X168713208Y-70370268D01*
X168717186Y-70283903D01*
X168721987Y-70212725D01*
X168727702Y-70154787D01*
X168734425Y-70108141D01*
X168742247Y-70070840D01*
X168751261Y-70040936D01*
X168761560Y-70016482D01*
X168773237Y-69995530D01*
X168786385Y-69976133D01*
X168801095Y-69956344D01*
X168817460Y-69934215D01*
X168833289Y-69912039D01*
X168863884Y-69868193D01*
X168882210Y-69840531D01*
X168882652Y-69839373D01*
X168876253Y-69834142D01*
X168853672Y-69829777D01*
X168812395Y-69826212D01*
X168749910Y-69823378D01*
X168663705Y-69821211D01*
X168551266Y-69819641D01*
X168410081Y-69818603D01*
X168237638Y-69818029D01*
X168031423Y-69817853D01*
X167166953Y-69817853D01*
X167212514Y-69871998D01*
X167238919Y-69909187D01*
X167282871Y-69996870D01*
X167321388Y-70105923D01*
X167350786Y-70226892D01*
X167352659Y-70238376D01*
X167358234Y-70298916D01*
X167362456Y-70392480D01*
X167365336Y-70519716D01*
X167366885Y-70681270D01*
X167367114Y-70877792D01*
X167366036Y-71109928D01*
X167360679Y-71884932D01*
X166807322Y-71185166D01*
X166791472Y-71165122D01*
X166651146Y-70987476D01*
X166531346Y-70835338D01*
X166430163Y-70706122D01*
X166345693Y-70597241D01*
X166276028Y-70506109D01*
X166219261Y-70430138D01*
X166173487Y-70366741D01*
X166136799Y-70313332D01*
X166107289Y-70267325D01*
X166083052Y-70226131D01*
X166062181Y-70187165D01*
X166042770Y-70147839D01*
X166012908Y-70078229D01*
X165993617Y-70004796D01*
X165988485Y-69925589D01*
X165989001Y-69817853D01*
X164153020Y-69817853D01*
X163545973Y-69817853D01*
X163565723Y-69807562D01*
X163708029Y-69695456D01*
X163747588Y-69655934D01*
X163864513Y-69509599D01*
X163947481Y-69350791D01*
X163996936Y-69178487D01*
X164013322Y-68991662D01*
X164013322Y-68838139D01*
X166617723Y-68838138D01*
X166780433Y-68838131D01*
X167129982Y-68838084D01*
X167445749Y-68838050D01*
X167729481Y-68838097D01*
X167982924Y-68838296D01*
X168207824Y-68838715D01*
X168405927Y-68839422D01*
X168578980Y-68840489D01*
X168728728Y-68841982D01*
X168856918Y-68843971D01*
X168965296Y-68846526D01*
X169055608Y-68849715D01*
X169129600Y-68853607D01*
X169189018Y-68858272D01*
X169235609Y-68863778D01*
X169271119Y-68870195D01*
X169297293Y-68877591D01*
X169315879Y-68886035D01*
X169328621Y-68895597D01*
X169337267Y-68906346D01*
X169343563Y-68918350D01*
X169349253Y-68931679D01*
X169356086Y-68946402D01*
X169356209Y-68946642D01*
X169359526Y-68956280D01*
X169362569Y-68972417D01*
X169365349Y-68996545D01*
X169367878Y-69030151D01*
X169370167Y-69074725D01*
X169372227Y-69131757D01*
X169374072Y-69202735D01*
X169375710Y-69289149D01*
X169377156Y-69392488D01*
X169378419Y-69514242D01*
X169379512Y-69655899D01*
X169380446Y-69818950D01*
X169381233Y-70004882D01*
X169381884Y-70215186D01*
X169382410Y-70451351D01*
X169382824Y-70714866D01*
X169383137Y-71007221D01*
X169383360Y-71329904D01*
X169383505Y-71684405D01*
X169383584Y-72072213D01*
X169383607Y-72494817D01*
X169383608Y-72577838D01*
X169383648Y-72996038D01*
X169383710Y-73379737D01*
X169383747Y-73730433D01*
X169383710Y-74049628D01*
X169383555Y-74338822D01*
X169383232Y-74599515D01*
X169382694Y-74833208D01*
X169381894Y-75041400D01*
X169380785Y-75225592D01*
X169379809Y-75333281D01*
X169379321Y-75387284D01*
G36*
X169379321Y-75387284D02*
G01*
X169377453Y-75527977D01*
X169375134Y-75649170D01*
X169372318Y-75752364D01*
X169368957Y-75839059D01*
X169365003Y-75910756D01*
X169360410Y-75968954D01*
X169355131Y-76015154D01*
X169349118Y-76050857D01*
X169342323Y-76077561D01*
X169334701Y-76096769D01*
X169326202Y-76109979D01*
X169316782Y-76118692D01*
X169306391Y-76124409D01*
X169294983Y-76128630D01*
X169282511Y-76132854D01*
X169268927Y-76138583D01*
X169261284Y-76141454D01*
X169247264Y-76144589D01*
X169226431Y-76147461D01*
X169197314Y-76150083D01*
X169158437Y-76152464D01*
X169108327Y-76154618D01*
X169045510Y-76156554D01*
X168968513Y-76158286D01*
X168875862Y-76159824D01*
X168766083Y-76161180D01*
X168637703Y-76162365D01*
X168489247Y-76163392D01*
X168319243Y-76164270D01*
X168126216Y-76165013D01*
X167908693Y-76165631D01*
X167665201Y-76166137D01*
X167394264Y-76166540D01*
X167094410Y-76166854D01*
X166764166Y-76167089D01*
X166402057Y-76167258D01*
X166006609Y-76167371D01*
X165576349Y-76167440D01*
X165440001Y-76167453D01*
X165019079Y-76167462D01*
X164632540Y-76167409D01*
X164278927Y-76167284D01*
X163956783Y-76167076D01*
X163664654Y-76166775D01*
X163401081Y-76166370D01*
X163164609Y-76165850D01*
X162953783Y-76165206D01*
X162767144Y-76164426D01*
X162603238Y-76163500D01*
X162460608Y-76162417D01*
X162337798Y-76161167D01*
X162233351Y-76159739D01*
X162145812Y-76158122D01*
X162073723Y-76156307D01*
X162015629Y-76154282D01*
X161970073Y-76152037D01*
X161935600Y-76149561D01*
X161910752Y-76146844D01*
X161894074Y-76143875D01*
X161884110Y-76140644D01*
X161880939Y-76139206D01*
X161867960Y-76134482D01*
X161856058Y-76131032D01*
X161845185Y-76127354D01*
X161835291Y-76121945D01*
X161826330Y-76113303D01*
X161818252Y-76099926D01*
X161811009Y-76080310D01*
X161804554Y-76052955D01*
X161798838Y-76016357D01*
X161793812Y-75969014D01*
X161789429Y-75909424D01*
X161785640Y-75836083D01*
X161782397Y-75747491D01*
X161779652Y-75642144D01*
X161777356Y-75518541D01*
X161775461Y-75375178D01*
X161774839Y-75308791D01*
X162253266Y-75308791D01*
X162253791Y-75315149D01*
X162263414Y-75320301D01*
X162285157Y-75324374D01*
X162322041Y-75327494D01*
X162377086Y-75329789D01*
X162453312Y-75331383D01*
X162553741Y-75332403D01*
X162681394Y-75332975D01*
X162839291Y-75333226D01*
X163030452Y-75333281D01*
X163831207Y-75333281D01*
X163763514Y-75210817D01*
X163695822Y-75088353D01*
X163695822Y-71532353D01*
X163763514Y-71409889D01*
X163831207Y-71287424D01*
X162399886Y-71287424D01*
X162394711Y-73169746D01*
X162389536Y-75052067D01*
X162338796Y-75160432D01*
X162312044Y-75214143D01*
X162281753Y-75267948D01*
X162258877Y-75301039D01*
X162258819Y-75301103D01*
X162253266Y-75308791D01*
X161774839Y-75308791D01*
X161773919Y-75210553D01*
X161772682Y-75023164D01*
X161771701Y-74811509D01*
X161770928Y-74574085D01*
X161770315Y-74309390D01*
X161769814Y-74015922D01*
X161769377Y-73692177D01*
X161768954Y-73336654D01*
X161768498Y-72947850D01*
X161767961Y-72524264D01*
X161767892Y-72472984D01*
X161767293Y-72052081D01*
X161766720Y-71665786D01*
X161766216Y-71312596D01*
X161765823Y-70991008D01*
X161765583Y-70699518D01*
X161765539Y-70436624D01*
X161765733Y-70200822D01*
X161766207Y-69990610D01*
X161767005Y-69804484D01*
X161768167Y-69640941D01*
X161769737Y-69498479D01*
X161771757Y-69375594D01*
X161774270Y-69270783D01*
X161777317Y-69182543D01*
X161780942Y-69109371D01*
X161785186Y-69049764D01*
X161790091Y-69002219D01*
X161795701Y-68965232D01*
X161802058Y-68937302D01*
X161809204Y-68916924D01*
X161817181Y-68902595D01*
X161826032Y-68892814D01*
X161835799Y-68886075D01*
X161846525Y-68880878D01*
X161858251Y-68875717D01*
X161871021Y-68869091D01*
X161874758Y-68866980D01*
X161931298Y-68846542D01*
X161993193Y-68838141D01*
X162062965Y-68838144D01*
X162064127Y-68996891D01*
X162064422Y-69015159D01*
X162086599Y-69200851D01*
X162143081Y-69375571D01*
X162233085Y-69537467D01*
X162355825Y-69684689D01*
X162421691Y-69744735D01*
X162568347Y-69844262D01*
X162728363Y-69913666D01*
X162897078Y-69952911D01*
X163069832Y-69961961D01*
X163241965Y-69940777D01*
X163408815Y-69889323D01*
X163545973Y-69817853D01*
X164153020Y-69817853D01*
X164232850Y-69875286D01*
X164300363Y-69929265D01*
X164395496Y-70017310D01*
X164503400Y-70127654D01*
X164619990Y-70256094D01*
X164741178Y-70398424D01*
X164772387Y-70436486D01*
X164825522Y-70501767D01*
X164894976Y-70587412D01*
X164978449Y-70690564D01*
X165073639Y-70808363D01*
X165178247Y-70937952D01*
X165289970Y-71076471D01*
X165406508Y-71221063D01*
X165459960Y-71287424D01*
X165525560Y-71368868D01*
X165644825Y-71517027D01*
X165762002Y-71662684D01*
X165874789Y-71802978D01*
X165980887Y-71935051D01*
X166077994Y-72056045D01*
X166163809Y-72163102D01*
X166236031Y-72253362D01*
X166292359Y-72323967D01*
X166330492Y-72372059D01*
X166348130Y-72394779D01*
X166349585Y-72403317D01*
X166344743Y-72419556D01*
X166332195Y-72445103D01*
X166310690Y-72481771D01*
X166278973Y-72531373D01*
X166235793Y-72595719D01*
X166179898Y-72676622D01*
X166110034Y-72775895D01*
X166024950Y-72895350D01*
X165923392Y-73036798D01*
X165804109Y-73202053D01*
X165665847Y-73392925D01*
X165507355Y-73611228D01*
X165381070Y-73784995D01*
X165226998Y-73996831D01*
X165091473Y-74182864D01*
X164972917Y-74345158D01*
X164869754Y-74485778D01*
X164780408Y-74606789D01*
X164703304Y-74710256D01*
X164636865Y-74798242D01*
X164579516Y-74872814D01*
X164529679Y-74936034D01*
X164485779Y-74989969D01*
X164446240Y-75036682D01*
X164409486Y-75078238D01*
X164373940Y-75116703D01*
X164338028Y-75154139D01*
X164300171Y-75192613D01*
X164160664Y-75333281D01*
X166036250Y-75333357D01*
X166030357Y-75219699D01*
X166030072Y-75213988D01*
X166028953Y-75168551D01*
X166031074Y-75125017D01*
X166037851Y-75081000D01*
X166050705Y-75034117D01*
X166071053Y-74981982D01*
X166100313Y-74922210D01*
X166139905Y-74852418D01*
X166191246Y-74770221D01*
X166255755Y-74673233D01*
X166334850Y-74559071D01*
X166429950Y-74425349D01*
X166542474Y-74269684D01*
X166673839Y-74089689D01*
X166825465Y-73882981D01*
X167360679Y-73154335D01*
X167365394Y-73999179D01*
X167365812Y-74077986D01*
X167366549Y-74290256D01*
X167366214Y-74470805D01*
X167364412Y-74623052D01*
X167360749Y-74750412D01*
X167354829Y-74856302D01*
X167346260Y-74944139D01*
X167334644Y-75017340D01*
X167319590Y-75079322D01*
X167300700Y-75133500D01*
X167277582Y-75183293D01*
X167249840Y-75232117D01*
X167217080Y-75283388D01*
X167184149Y-75333281D01*
X168895597Y-75333281D01*
X168851389Y-75274317D01*
X168844465Y-75264989D01*
X168789114Y-75179494D01*
X168750957Y-75093068D01*
X168725901Y-74994037D01*
X168709852Y-74870728D01*
X168709411Y-74865353D01*
X168707082Y-74814491D01*
X168704980Y-74729630D01*
X168703112Y-74612710D01*
X168701489Y-74465670D01*
X168700120Y-74290450D01*
X168699013Y-74088987D01*
X168698178Y-73863222D01*
X168697625Y-73615093D01*
X168697361Y-73346539D01*
X168697396Y-73059501D01*
X168697740Y-72755916D01*
X168698401Y-72437724D01*
X168699102Y-72152305D01*
X168699851Y-71841620D01*
X168700589Y-71563650D01*
X168701408Y-71316446D01*
X168702400Y-71098061D01*
X168703659Y-70906549D01*
X168705276Y-70739961D01*
X168707345Y-70596349D01*
X168709958Y-70473768D01*
X168713208Y-70370268D01*
X168717186Y-70283903D01*
X168721987Y-70212725D01*
X168727702Y-70154787D01*
X168734425Y-70108141D01*
X168742247Y-70070840D01*
X168751261Y-70040936D01*
X168761560Y-70016482D01*
X168773237Y-69995530D01*
X168786385Y-69976133D01*
X168801095Y-69956344D01*
X168817460Y-69934215D01*
X168833289Y-69912039D01*
X168863884Y-69868193D01*
X168882210Y-69840531D01*
X168882652Y-69839373D01*
X168876253Y-69834142D01*
X168853672Y-69829777D01*
X168812395Y-69826212D01*
X168749910Y-69823378D01*
X168663705Y-69821211D01*
X168551266Y-69819641D01*
X168410081Y-69818603D01*
X168237638Y-69818029D01*
X168031423Y-69817853D01*
X167166953Y-69817853D01*
X167212514Y-69871998D01*
X167238919Y-69909187D01*
X167282871Y-69996870D01*
X167321388Y-70105923D01*
X167350786Y-70226892D01*
X167352659Y-70238376D01*
X167358234Y-70298916D01*
X167362456Y-70392480D01*
X167365336Y-70519716D01*
X167366885Y-70681270D01*
X167367114Y-70877792D01*
X167366036Y-71109928D01*
X167360679Y-71884932D01*
X166807322Y-71185166D01*
X166791472Y-71165122D01*
X166651146Y-70987476D01*
X166531346Y-70835338D01*
X166430163Y-70706122D01*
X166345693Y-70597241D01*
X166276028Y-70506109D01*
X166219261Y-70430138D01*
X166173487Y-70366741D01*
X166136799Y-70313332D01*
X166107289Y-70267325D01*
X166083052Y-70226131D01*
X166062181Y-70187165D01*
X166042770Y-70147839D01*
X166012908Y-70078229D01*
X165993617Y-70004796D01*
X165988485Y-69925589D01*
X165989001Y-69817853D01*
X164153020Y-69817853D01*
X163545973Y-69817853D01*
X163565723Y-69807562D01*
X163708029Y-69695456D01*
X163747588Y-69655934D01*
X163864513Y-69509599D01*
X163947481Y-69350791D01*
X163996936Y-69178487D01*
X164013322Y-68991662D01*
X164013322Y-68838139D01*
X166617723Y-68838138D01*
X166780433Y-68838131D01*
X167129982Y-68838084D01*
X167445749Y-68838050D01*
X167729481Y-68838097D01*
X167982924Y-68838296D01*
X168207824Y-68838715D01*
X168405927Y-68839422D01*
X168578980Y-68840489D01*
X168728728Y-68841982D01*
X168856918Y-68843971D01*
X168965296Y-68846526D01*
X169055608Y-68849715D01*
X169129600Y-68853607D01*
X169189018Y-68858272D01*
X169235609Y-68863778D01*
X169271119Y-68870195D01*
X169297293Y-68877591D01*
X169315879Y-68886035D01*
X169328621Y-68895597D01*
X169337267Y-68906346D01*
X169343563Y-68918350D01*
X169349253Y-68931679D01*
X169356086Y-68946402D01*
X169356209Y-68946642D01*
X169359526Y-68956280D01*
X169362569Y-68972417D01*
X169365349Y-68996545D01*
X169367878Y-69030151D01*
X169370167Y-69074725D01*
X169372227Y-69131757D01*
X169374072Y-69202735D01*
X169375710Y-69289149D01*
X169377156Y-69392488D01*
X169378419Y-69514242D01*
X169379512Y-69655899D01*
X169380446Y-69818950D01*
X169381233Y-70004882D01*
X169381884Y-70215186D01*
X169382410Y-70451351D01*
X169382824Y-70714866D01*
X169383137Y-71007221D01*
X169383360Y-71329904D01*
X169383505Y-71684405D01*
X169383584Y-72072213D01*
X169383607Y-72494817D01*
X169383608Y-72577838D01*
X169383648Y-72996038D01*
X169383710Y-73379737D01*
X169383747Y-73730433D01*
X169383710Y-74049628D01*
X169383555Y-74338822D01*
X169383232Y-74599515D01*
X169382694Y-74833208D01*
X169381894Y-75041400D01*
X169380785Y-75225592D01*
X169379809Y-75333281D01*
X169379321Y-75387284D01*
G37*
D12*
%TO.C,SW1*%
X132164214Y-73500000D02*
G75*
G02*
X129335786Y-73500000I-1414214J0D01*
G01*
X129335786Y-73500000D02*
G75*
G02*
X132164214Y-73500000I1414214J0D01*
G01*
X133870000Y-76470000D02*
X133870000Y-70530000D01*
X127630000Y-76470000D02*
X127630000Y-70530000D01*
X129410000Y-70380000D02*
X132090000Y-70380000D01*
X132090000Y-76620000D02*
X129410000Y-76620000D01*
%TD*%
M02*
