%TF.GenerationSoftware,KiCad,Pcbnew,8.0.1*%
%TF.CreationDate,2024-08-08T16:42:16+02:00*%
%TF.ProjectId,LED torch,4c454420-746f-4726-9368-2e6b69636164,1*%
%TF.SameCoordinates,Original*%
%TF.FileFunction,Legend,Top*%
%TF.FilePolarity,Positive*%
%FSLAX46Y46*%
G04 Gerber Fmt 4.6, Leading zero omitted, Abs format (unit mm)*
G04 Created by KiCad (PCBNEW 8.0.1) date 2024-08-08 16:42:16*
%MOMM*%
%LPD*%
G01*
G04 APERTURE LIST*
%ADD10C,0.100000*%
%ADD11C,0.150000*%
%ADD12C,0.120000*%
G04 APERTURE END LIST*
D10*
X110590684Y-67766666D02*
X111352589Y-67766666D01*
X110971636Y-68147619D02*
X110971636Y-67385714D01*
X114476884Y-67893666D02*
X115238789Y-67893666D01*
D11*
X129166667Y-68657200D02*
X129309524Y-68704819D01*
X129309524Y-68704819D02*
X129547619Y-68704819D01*
X129547619Y-68704819D02*
X129642857Y-68657200D01*
X129642857Y-68657200D02*
X129690476Y-68609580D01*
X129690476Y-68609580D02*
X129738095Y-68514342D01*
X129738095Y-68514342D02*
X129738095Y-68419104D01*
X129738095Y-68419104D02*
X129690476Y-68323866D01*
X129690476Y-68323866D02*
X129642857Y-68276247D01*
X129642857Y-68276247D02*
X129547619Y-68228628D01*
X129547619Y-68228628D02*
X129357143Y-68181009D01*
X129357143Y-68181009D02*
X129261905Y-68133390D01*
X129261905Y-68133390D02*
X129214286Y-68085771D01*
X129214286Y-68085771D02*
X129166667Y-67990533D01*
X129166667Y-67990533D02*
X129166667Y-67895295D01*
X129166667Y-67895295D02*
X129214286Y-67800057D01*
X129214286Y-67800057D02*
X129261905Y-67752438D01*
X129261905Y-67752438D02*
X129357143Y-67704819D01*
X129357143Y-67704819D02*
X129595238Y-67704819D01*
X129595238Y-67704819D02*
X129738095Y-67752438D01*
X130071429Y-67704819D02*
X130309524Y-68704819D01*
X130309524Y-68704819D02*
X130500000Y-67990533D01*
X130500000Y-67990533D02*
X130690476Y-68704819D01*
X130690476Y-68704819D02*
X130928572Y-67704819D01*
X131833333Y-68704819D02*
X131261905Y-68704819D01*
X131547619Y-68704819D02*
X131547619Y-67704819D01*
X131547619Y-67704819D02*
X131452381Y-67847676D01*
X131452381Y-67847676D02*
X131357143Y-67942914D01*
X131357143Y-67942914D02*
X131261905Y-67990533D01*
X117534819Y-73476666D02*
X117058628Y-73809999D01*
X117534819Y-74048094D02*
X116534819Y-74048094D01*
X116534819Y-74048094D02*
X116534819Y-73667142D01*
X116534819Y-73667142D02*
X116582438Y-73571904D01*
X116582438Y-73571904D02*
X116630057Y-73524285D01*
X116630057Y-73524285D02*
X116725295Y-73476666D01*
X116725295Y-73476666D02*
X116868152Y-73476666D01*
X116868152Y-73476666D02*
X116963390Y-73524285D01*
X116963390Y-73524285D02*
X117011009Y-73571904D01*
X117011009Y-73571904D02*
X117058628Y-73667142D01*
X117058628Y-73667142D02*
X117058628Y-74048094D01*
X117534819Y-72524285D02*
X117534819Y-73095713D01*
X117534819Y-72809999D02*
X116534819Y-72809999D01*
X116534819Y-72809999D02*
X116677676Y-72905237D01*
X116677676Y-72905237D02*
X116772914Y-73000475D01*
X116772914Y-73000475D02*
X116820533Y-73095713D01*
X112266905Y-76914819D02*
X112266905Y-75914819D01*
X112266905Y-75914819D02*
X112505000Y-75914819D01*
X112505000Y-75914819D02*
X112647857Y-75962438D01*
X112647857Y-75962438D02*
X112743095Y-76057676D01*
X112743095Y-76057676D02*
X112790714Y-76152914D01*
X112790714Y-76152914D02*
X112838333Y-76343390D01*
X112838333Y-76343390D02*
X112838333Y-76486247D01*
X112838333Y-76486247D02*
X112790714Y-76676723D01*
X112790714Y-76676723D02*
X112743095Y-76771961D01*
X112743095Y-76771961D02*
X112647857Y-76867200D01*
X112647857Y-76867200D02*
X112505000Y-76914819D01*
X112505000Y-76914819D02*
X112266905Y-76914819D01*
X113790714Y-76914819D02*
X113219286Y-76914819D01*
X113505000Y-76914819D02*
X113505000Y-75914819D01*
X113505000Y-75914819D02*
X113409762Y-76057676D01*
X113409762Y-76057676D02*
X113314524Y-76152914D01*
X113314524Y-76152914D02*
X113219286Y-76200533D01*
X109204819Y-73642857D02*
X109204819Y-74119047D01*
X109204819Y-74119047D02*
X108204819Y-74119047D01*
X108681009Y-73309523D02*
X108681009Y-72976190D01*
X109204819Y-72833333D02*
X109204819Y-73309523D01*
X109204819Y-73309523D02*
X108204819Y-73309523D01*
X108204819Y-73309523D02*
X108204819Y-72833333D01*
X109204819Y-72404761D02*
X108204819Y-72404761D01*
X108204819Y-72404761D02*
X108204819Y-72166666D01*
X108204819Y-72166666D02*
X108252438Y-72023809D01*
X108252438Y-72023809D02*
X108347676Y-71928571D01*
X108347676Y-71928571D02*
X108442914Y-71880952D01*
X108442914Y-71880952D02*
X108633390Y-71833333D01*
X108633390Y-71833333D02*
X108776247Y-71833333D01*
X108776247Y-71833333D02*
X108966723Y-71880952D01*
X108966723Y-71880952D02*
X109061961Y-71928571D01*
X109061961Y-71928571D02*
X109157200Y-72023809D01*
X109157200Y-72023809D02*
X109204819Y-72166666D01*
X109204819Y-72166666D02*
X109204819Y-72404761D01*
X157714285Y-81431009D02*
X157857142Y-81478628D01*
X157857142Y-81478628D02*
X157904761Y-81526247D01*
X157904761Y-81526247D02*
X157952380Y-81621485D01*
X157952380Y-81621485D02*
X157952380Y-81764342D01*
X157952380Y-81764342D02*
X157904761Y-81859580D01*
X157904761Y-81859580D02*
X157857142Y-81907200D01*
X157857142Y-81907200D02*
X157761904Y-81954819D01*
X157761904Y-81954819D02*
X157380952Y-81954819D01*
X157380952Y-81954819D02*
X157380952Y-80954819D01*
X157380952Y-80954819D02*
X157714285Y-80954819D01*
X157714285Y-80954819D02*
X157809523Y-81002438D01*
X157809523Y-81002438D02*
X157857142Y-81050057D01*
X157857142Y-81050057D02*
X157904761Y-81145295D01*
X157904761Y-81145295D02*
X157904761Y-81240533D01*
X157904761Y-81240533D02*
X157857142Y-81335771D01*
X157857142Y-81335771D02*
X157809523Y-81383390D01*
X157809523Y-81383390D02*
X157714285Y-81431009D01*
X157714285Y-81431009D02*
X157380952Y-81431009D01*
X158238095Y-80954819D02*
X158809523Y-80954819D01*
X158523809Y-81954819D02*
X158523809Y-80954819D01*
X159666666Y-81954819D02*
X159095238Y-81954819D01*
X159380952Y-81954819D02*
X159380952Y-80954819D01*
X159380952Y-80954819D02*
X159285714Y-81097676D01*
X159285714Y-81097676D02*
X159190476Y-81192914D01*
X159190476Y-81192914D02*
X159095238Y-81240533D01*
X156928570Y-62931009D02*
X157071427Y-62978628D01*
X157071427Y-62978628D02*
X157119046Y-63026247D01*
X157119046Y-63026247D02*
X157166665Y-63121485D01*
X157166665Y-63121485D02*
X157166665Y-63264342D01*
X157166665Y-63264342D02*
X157119046Y-63359580D01*
X157119046Y-63359580D02*
X157071427Y-63407200D01*
X157071427Y-63407200D02*
X156976189Y-63454819D01*
X156976189Y-63454819D02*
X156595237Y-63454819D01*
X156595237Y-63454819D02*
X156595237Y-62454819D01*
X156595237Y-62454819D02*
X156928570Y-62454819D01*
X156928570Y-62454819D02*
X157023808Y-62502438D01*
X157023808Y-62502438D02*
X157071427Y-62550057D01*
X157071427Y-62550057D02*
X157119046Y-62645295D01*
X157119046Y-62645295D02*
X157119046Y-62740533D01*
X157119046Y-62740533D02*
X157071427Y-62835771D01*
X157071427Y-62835771D02*
X157023808Y-62883390D01*
X157023808Y-62883390D02*
X156928570Y-62931009D01*
X156928570Y-62931009D02*
X156595237Y-62931009D01*
X158023808Y-63454819D02*
X158023808Y-62931009D01*
X158023808Y-62931009D02*
X157976189Y-62835771D01*
X157976189Y-62835771D02*
X157880951Y-62788152D01*
X157880951Y-62788152D02*
X157690475Y-62788152D01*
X157690475Y-62788152D02*
X157595237Y-62835771D01*
X158023808Y-63407200D02*
X157928570Y-63454819D01*
X157928570Y-63454819D02*
X157690475Y-63454819D01*
X157690475Y-63454819D02*
X157595237Y-63407200D01*
X157595237Y-63407200D02*
X157547618Y-63311961D01*
X157547618Y-63311961D02*
X157547618Y-63216723D01*
X157547618Y-63216723D02*
X157595237Y-63121485D01*
X157595237Y-63121485D02*
X157690475Y-63073866D01*
X157690475Y-63073866D02*
X157928570Y-63073866D01*
X157928570Y-63073866D02*
X158023808Y-63026247D01*
X158357142Y-62788152D02*
X158738094Y-62788152D01*
X158499999Y-62454819D02*
X158499999Y-63311961D01*
X158499999Y-63311961D02*
X158547618Y-63407200D01*
X158547618Y-63407200D02*
X158642856Y-63454819D01*
X158642856Y-63454819D02*
X158738094Y-63454819D01*
X158928571Y-62788152D02*
X159309523Y-62788152D01*
X159071428Y-62454819D02*
X159071428Y-63311961D01*
X159071428Y-63311961D02*
X159119047Y-63407200D01*
X159119047Y-63407200D02*
X159214285Y-63454819D01*
X159214285Y-63454819D02*
X159309523Y-63454819D01*
X160023809Y-63407200D02*
X159928571Y-63454819D01*
X159928571Y-63454819D02*
X159738095Y-63454819D01*
X159738095Y-63454819D02*
X159642857Y-63407200D01*
X159642857Y-63407200D02*
X159595238Y-63311961D01*
X159595238Y-63311961D02*
X159595238Y-62931009D01*
X159595238Y-62931009D02*
X159642857Y-62835771D01*
X159642857Y-62835771D02*
X159738095Y-62788152D01*
X159738095Y-62788152D02*
X159928571Y-62788152D01*
X159928571Y-62788152D02*
X160023809Y-62835771D01*
X160023809Y-62835771D02*
X160071428Y-62931009D01*
X160071428Y-62931009D02*
X160071428Y-63026247D01*
X160071428Y-63026247D02*
X159595238Y-63121485D01*
X160500000Y-63454819D02*
X160500000Y-62788152D01*
X160500000Y-62978628D02*
X160547619Y-62883390D01*
X160547619Y-62883390D02*
X160595238Y-62835771D01*
X160595238Y-62835771D02*
X160690476Y-62788152D01*
X160690476Y-62788152D02*
X160785714Y-62788152D01*
X161023810Y-62788152D02*
X161261905Y-63454819D01*
X161500000Y-62788152D02*
X161261905Y-63454819D01*
X161261905Y-63454819D02*
X161166667Y-63692914D01*
X161166667Y-63692914D02*
X161119048Y-63740533D01*
X161119048Y-63740533D02*
X161023810Y-63788152D01*
D12*
%TO.C,R1*%
X119000000Y-70440000D02*
X119000000Y-71390000D01*
X119920000Y-71390000D02*
X118080000Y-71390000D01*
X118080000Y-71390000D02*
X118080000Y-75230000D01*
X119920000Y-75230000D02*
X119920000Y-71390000D01*
X118080000Y-75230000D02*
X119920000Y-75230000D01*
X119000000Y-76180000D02*
X119000000Y-75230000D01*
%TO.C,D1*%
X115565000Y-74045000D02*
X115565000Y-70955000D01*
X115564999Y-74044830D02*
G75*
G02*
X110015001Y-72499538I-2559999J1544830D01*
G01*
X110015000Y-72500462D02*
G75*
G02*
X115565000Y-70955170I2990000J462D01*
G01*
X115505000Y-72500000D02*
G75*
G02*
X110505000Y-72500000I-2500000J0D01*
G01*
X110505000Y-72500000D02*
G75*
G02*
X115505000Y-72500000I2500000J0D01*
G01*
%TO.C,BT1*%
X169692000Y-76110000D02*
G75*
G02*
X166845371Y-80611789I-10692020J3610012D01*
G01*
X166845371Y-64388211D02*
G75*
G02*
X169692000Y-68890000I-7845371J-8111789D01*
G01*
X151154629Y-80611789D02*
G75*
G02*
X148308000Y-76110000I7845366J8111785D01*
G01*
X148308001Y-68890000D02*
G75*
G02*
X151154629Y-64388211I10692019J-3610010D01*
G01*
X173310000Y-76110000D02*
X169692000Y-76110000D01*
X173310000Y-74400000D02*
X173310000Y-76110000D01*
X173310000Y-70600000D02*
X173310000Y-68890000D01*
X169692000Y-68890000D02*
X173310000Y-68890000D01*
X166847300Y-80610000D02*
X162860000Y-80610000D01*
X160660000Y-78410000D02*
X162860000Y-80610000D01*
X160660000Y-78410000D02*
X157340000Y-78410000D01*
X157340000Y-78410000D02*
X155140000Y-80610000D01*
X155140000Y-80610000D02*
X151152700Y-80610000D01*
X151152700Y-64390000D02*
X166847300Y-64390000D01*
X148308000Y-76110000D02*
X144690000Y-76110000D01*
X144690000Y-74400000D02*
X144690000Y-76110000D01*
X144690000Y-70600000D02*
X144690000Y-68890000D01*
X144690000Y-68890000D02*
X148308000Y-68890000D01*
%TD*%
M02*
